<?xml version="1.0" encoding="UTF-8" standalone="no"?>
<!DOCTYPE svg  PUBLIC '-//W3C//DTD SVG 1.1//EN'  'http://www.w3.org/Graphics/SVG/1.1/DTD/svg11.dtd'>
<svg xmlns="http://www.w3.org/2000/svg">
<defs>
<font id="PFDinTextPro-Medium" horiz-adv-x="525">
<font-face underline-position="-50" font-weight="500" descent="-200" panose-1="2 0 5 6 2 0 0 2 0 4" units-per-em="1000" unicode-range="U+0020-25CA" bbox="-66 -213 1090 929" x-height="495" underline-thickness="50" font-family="PFDinTextPro" ascent="800" cap-height="696"/>
<missing-glyph horiz-adv-x="1000"/>
<glyph glyph-name=".notdef" horiz-adv-x="1000"/>
<glyph glyph-name=".null" horiz-adv-x="0"/>
<glyph glyph-name="nonmarkingreturn" horiz-adv-x="333"/>
<glyph glyph-name="space" horiz-adv-x="252" unicode=" "/>
<glyph glyph-name="exclam" horiz-adv-x="268" unicode="!" d="M75 0v113h119v-113h-119zM180 184h-92l-10 512h112z"/>
<glyph glyph-name="quotedbl" horiz-adv-x="359" unicode='&quot;' d="M57 481v215h94v-215h-94zM203 481v215h94v-215h-94z"/>
<glyph glyph-name="numbersign" horiz-adv-x="546" unicode="#" d="M210 287h99l18 123h-99zM399 287h95v-78h-106l-29 -209h-91l29 209h-98l-29 -209h-92l30 209h-89v78h101l17 123h-89v79h101l29 206h90l-29 -206h99l29 206h90l-29 -206h95v-79h-106z"/>
<glyph glyph-name="dollar" d="M170 497q0 -28 21.5 -45.5t48.5 -28.5v160q-30 -5 -50 -26.5t-20 -59.5zM369 191q0 38 -22.5 57t-54.5 31v-171q38 6 57.5 28t19.5 55zM240 -4q-57 4 -111 25.5t-103 66.5l68 88q34 -29 69.5 -46.5t76.5 -22.5v187q-37 12 -71.5 28t-61 39.5t-42.5 55t-16 75.5 q0 42 13.5 77.5t38.5 62t60 43t79 20.5v74h52v-74q49 -3 95.5 -19t88.5 -46q-2 -4 -10.5 -18.5t-18 -31t-18 -30.5t-11.5 -18q-33 22 -63.5 35t-62.5 17v-179q48 -15 86 -32.5t65 -41.5t41.5 -56.5t14.5 -77.5t-15.5 -81.5t-43 -62t-65.5 -40t-83 -17.5v-107h-52v107z" unicode="$"/>
<glyph glyph-name="percent" horiz-adv-x="860" unicode="%" d="M262 -17h-89l425 730h90zM256 572q0 24 -14.5 37t-37.5 13t-37 -13t-14 -37v-169q0 -25 14 -37.5t37 -12.5t37.5 12.5t14.5 37.5v169zM344 400q0 -30 -11.5 -53t-31 -38.5t-45 -24t-52.5 -8.5t-52 8.5t-44.5 24t-31 38.5t-11.5 53v174q0 30 11.5 53t31 39t44.5 24.5 t52 8.5t52.5 -8.5t45 -24.5t31 -39t11.5 -53v-174zM707 293q0 24 -14.5 37t-37.5 13t-37 -13t-14 -37v-169q0 -25 14 -37.5t37 -12.5t37.5 12.5t14.5 37.5v169zM795 121q0 -30 -11.5 -53t-31 -38.5t-45 -24t-52.5 -8.5t-52 8.5t-44.5 24t-31 38.5t-11.5 53v174q0 30 11.5 53 t31 39t44.5 24.5t52 8.5t52.5 -8.5t45 -24.5t31 -39t11.5 -53v-174z"/>
<glyph glyph-name="ampersand" horiz-adv-x="649" unicode="&amp;" d="M382 145q-32 41 -62.5 81t-62.5 81q-39 -26 -60.5 -58t-21.5 -70q0 -35 24.5 -59t73.5 -24q31 0 60 15.5t49 33.5zM444 66q-38 -34 -82 -53t-92 -19q-52 0 -90 15t-63 39.5t-37 57t-12 68.5q0 64 31 114.5t99 96.5q-13 16 -25.5 33t-22.5 35t-16 38t-6 43q0 37 11.5 68 t34.5 53.5t58 35t83 12.5q42 0 89 -14t90 -51l-64 -83q-19 15 -34.5 24.5t-29.5 14.5t-28 6.5t-29 1.5q-36 0 -54.5 -19.5t-18.5 -46.5q0 -20 6.5 -33.5t23.5 -36.5l180 -237q14 26 22.5 53t13.5 55l102 -22q-9 -45 -26.5 -90t-43.5 -83q28 -35 56.5 -71.5t56.5 -70.5h-132z "/>
<glyph glyph-name="quotesingle" horiz-adv-x="251" unicode="&apos;" d="M76 481v215h94v-215h-94z"/>
<glyph glyph-name="parenleft" horiz-adv-x="332" unicode="(" d="M254 -131q-40 43 -75.5 93t-62.5 105.5t-43 115.5t-16 122q0 64 15.5 124t42 114.5t61.5 104t74 91.5l66 -42q-33 -44 -59 -92.5t-43.5 -98t-26.5 -99.5t-9 -97q0 -51 9.5 -103t27.5 -102t43.5 -98t57.5 -90z"/>
<glyph glyph-name="parenright" horiz-adv-x="332" unicode=")" d="M296 305q0 -62 -16 -122t-43 -115.5t-62.5 -105.5t-75.5 -93l-63 48q65 85 102 187.5t37 205.5q0 47 -9 97t-26.5 99.5t-43.5 98t-59 92.5l65 42q39 -42 74.5 -91.5t62 -104t42 -114.5t15.5 -124z"/>
<glyph glyph-name="asterisk" horiz-adv-x="413" unicode="*" d="M343 423q-3 -3 -13.5 -11t-22.5 -16.5t-22.5 -16t-14.5 -10.5l-61 103l-63 -104l-73 54l80 90q-7 2 -23 6t-33.5 8.5t-33.5 8t-23 5.5q1 4 4.5 16t8 25.5t8 25.5t4.5 17l111 -47q0 7 -2 24.5t-3.5 36t-3.5 35.5t-2 24h90l-12 -120l111 47l25 -84l-115 -28z"/>
<glyph glyph-name="plus" d="M310 251v-189h-95v189h-191v90h191v187h95v-187h191v-90h-191z" unicode="+"/>
<glyph glyph-name="comma" horiz-adv-x="276" unicode="," d="M63 -132l36 131h-33v139h137v-133l-77 -137h-63z"/>
<glyph glyph-name="hyphen" horiz-adv-x="416" unicode="-" d="M49 211v103h318v-103h-318z"/>
<glyph glyph-name="period" horiz-adv-x="270" unicode="." d="M67 0v138h136v-138h-136z"/>
<glyph glyph-name="slash" horiz-adv-x="343" unicode="/" d="M84 -42h-93l252 767h93z"/>
<glyph glyph-name="zero" d="M360 495q0 48 -25.5 73.5t-67.5 25.5t-67 -25.5t-25 -73.5v-294q0 -48 25 -73.5t67 -25.5t67.5 25.5t25.5 73.5v294zM475 197q0 -48 -17.5 -86t-46 -63.5t-66.5 -39t-78 -13.5t-77.5 13.5t-66 39t-46 63.5t-17.5 86v301q0 49 17.5 86.5t46 63.5t66 39.5t77.5 13.5 t78 -13.5t66.5 -39.5t46 -63.5t17.5 -86.5v-301z" unicode="0"/>
<glyph glyph-name="one" d="M235 0v570l-97 -69v121l105 74h107v-696h-115z" unicode="1"/>
<glyph glyph-name="two" d="M55 512q6 43 24.5 78t46.5 60t64 38t75 13q44 0 82 -12t66 -35.5t44 -58.5t16 -82q0 -35 -13 -71.5t-37 -65.5l-221 -266h267v-110h-418v103l274 330q29 37 29 74q0 33 -22 59t-67 26q-37 0 -63 -25t-33 -73z" unicode="2"/>
<glyph glyph-name="three" d="M160 178q8 -39 35 -57.5t62 -18.5q45 0 73.5 30t28.5 79q0 48 -27.5 76t-77.5 28h-55v94h51q51 0 77.5 27t26.5 66q0 40 -27.5 65.5t-67.5 25.5q-29 0 -56 -19t-36 -62l-112 18q8 39 27.5 71t47.5 54t61.5 34t70.5 12q55 0 95 -16t66 -42.5t38.5 -61.5t12.5 -74 q0 -37 -21 -78t-68 -66q51 -26 73.5 -69t22.5 -83q0 -48 -16 -87.5t-45.5 -68t-70.5 -44.5t-91 -16q-34 0 -67.5 9t-62 28.5t-50 51.5t-30.5 78z" unicode="3"/>
<glyph glyph-name="four" d="M442 101v-101h-115v101h-299v98l241 497h127l-238 -489h169v193h115v-193h57v-106h-57z" unicode="4"/>
<glyph glyph-name="five" d="M479 265q0 -59 -12 -108.5t-37.5 -85.5t-67 -56t-99.5 -20q-35 0 -69 7.5t-62.5 26t-49.5 50.5t-30 82l114 20q8 -45 33.5 -63t61.5 -18q33 0 52.5 14t30.5 35.5t14.5 47t3.5 48.5q0 25 -4 48t-15 41t-30 29t-48 11q-25 0 -47.5 -15t-38.5 -45h-108v382h389v-107h-280 v-151q27 24 57 32t58 8q48 0 82 -15.5t56.5 -44t33.5 -67.5t12 -86z" unicode="5"/>
<glyph glyph-name="six" d="M360 210q0 54 -28 80.5t-67 26.5q-36 0 -65 -27t-29 -80t25.5 -81t68.5 -28q38 0 66.5 28t28.5 81zM479 217q0 -59 -18.5 -101t-49.5 -69t-70 -39.5t-79 -12.5q-42 0 -79.5 13.5t-65.5 40.5t-44.5 67t-16.5 92q0 31 8 66.5t25 67.5l186 354h128l-150 -288l2 -2q21 6 44 6 q41 0 74.5 -15t57 -41.5t36 -62t12.5 -76.5z" unicode="6"/>
<glyph glyph-name="seven" d="M225 0h-124l239 586h-171v-99h-115v209h416v-104z" unicode="7"/>
<glyph glyph-name="eight" d="M375 207q0 22 -8.5 40.5t-23.5 32t-34.5 21.5t-41.5 8q-21 0 -40.5 -8t-34.5 -21.5t-24 -32t-9 -40.5t8.5 -41.5t23 -34t34 -23t42.5 -8.5t42.5 8.5t34 23t23 34t8.5 41.5zM362 499q0 45 -27.5 71.5t-67.5 26.5q-39 0 -66.5 -26t-27.5 -72q0 -45 28.5 -68t65.5 -23 q18 0 35.5 6t30.5 17.5t21 28.5t8 39zM489 204q0 -47 -17.5 -85.5t-48 -66t-71 -42.5t-85.5 -15t-85.5 15t-70.5 42.5t-48 66t-18 85.5q0 22 6 45.5t18 44.5t29.5 37.5t41.5 26.5v3q-43 19 -62 58t-19 81q0 43 16 79.5t43.5 63.5t65.5 42.5t83 15.5q51 0 90 -15.5 t65.5 -42.5t40 -63.5t13.5 -79.5t-20.5 -80t-60.5 -59v-2q24 -9 41.5 -26t29.5 -38t17.5 -45t5.5 -46z" unicode="8"/>
<glyph glyph-name="nine" d="M176 486q0 -54 28 -80.5t67 -26.5q36 0 65 27t29 80t-25.5 81t-68.5 28q-38 0 -66.5 -28t-28.5 -81zM57 479q0 58 18.5 100t49.5 69t69.5 40t79.5 13q42 0 79.5 -13.5t65.5 -40.5t44.5 -67t16.5 -92q0 -31 -8 -66.5t-25 -67.5l-186 -354h-128l150 288l-2 2q-21 -6 -44 -6 q-41 0 -74.5 15t-57 41t-36 62t-12.5 77z" unicode="9"/>
<glyph glyph-name="colon" horiz-adv-x="271" unicode=":" d="M66 276v139h136v-139h-136zM66 0v138h136v-138h-136z"/>
<glyph glyph-name="semicolon" horiz-adv-x="271" unicode=";" d="M64 -132l35 131h-32v139h136v-133l-77 -137h-62zM67 276v139h136v-139h-136z"/>
<glyph glyph-name="less" d="M30 253v87l460 213v-102l-340 -155l340 -155v-101z" unicode="&lt;"/>
<glyph glyph-name="equal" d="M23 146v90h478v-90h-478zM23 357v89h478v-89h-478z" unicode="="/>
<glyph glyph-name="greater" d="M31 40v101l340 155l-340 155v102l460 -213v-87z" unicode="&gt;"/>
<glyph glyph-name="question" horiz-adv-x="510" unicode="?" d="M200 0v113h118v-113h-118zM470 510q0 -29 -11.5 -55t-28 -50t-36.5 -47t-36.5 -45t-28 -44t-11.5 -44v-36h-117v39q0 30 10.5 55t26.5 47.5t34.5 42.5t34.5 41t26.5 43.5t10.5 48.5q0 14 -5 29t-16.5 27t-28.5 20t-41 8t-42 -9.5t-30.5 -24.5t-19.5 -34.5t-8 -38.5 q-29 5 -56.5 8.5t-56.5 7.5q8 50 29 87.5t51 63t66.5 38t76.5 12.5q48 0 86.5 -14.5t65 -40t41 -60.5t14.5 -75z"/>
<glyph glyph-name="at" horiz-adv-x="874" unicode="@" d="M497 306h-90q-35 0 -49.5 -12t-14.5 -31q0 -16 15.5 -32t54.5 -16q37 0 60.5 15.5t23.5 47.5v28zM584 260q0 -20 12.5 -36.5t35.5 -16.5q47 0 72 43t25 133q0 61 -22.5 110t-61 82.5t-89 51.5t-105.5 18q-68 0 -125 -24.5t-98.5 -66.5t-65 -99t-23.5 -122 q0 -69 23.5 -126.5t66 -98t101 -63t129.5 -22.5q33 0 62 3t55 9t51.5 15.5t51.5 21.5l26 -73q-59 -23 -116 -36.5t-125 -13.5q-87 0 -162 26t-130 75.5t-86 121t-31 162.5q0 82 30 152t82.5 121.5t125 81t157.5 29.5q78 0 144.5 -24t115 -68t76 -105.5t27.5 -135.5 q0 -59 -12.5 -106t-37 -80t-60 -51t-81.5 -18q-12 0 -28 4t-31.5 12t-28.5 20t-19 28h-5q-12 -23 -43 -40t-70 -17q-29 0 -54 7t-44.5 21.5t-30.5 37t-11 53.5q0 24 8.5 45.5t26 38t42.5 26t58 9.5h105v28q0 23 -16.5 40t-62.5 17q-32 0 -51 -9.5t-37 -25.5l-51 57 q61 59 149 59q33 0 61.5 -6.5t49.5 -21.5t33.5 -40.5t12.5 -63.5z"/>
<glyph glyph-name="A" horiz-adv-x="629" unicode="A" d="M361 398l-46 143h-3l-45 -140l-47 -144h187zM498 0l-55 154h-258l-56 -154h-127l263 696h98l263 -696h-128z"/>
<glyph glyph-name="B" horiz-adv-x="618" unicode="B" d="M459 207q0 19 -6.5 36.5t-20 31t-34.5 22t-49 8.5h-155v-195h155q28 0 49 8t34.5 21.5t20 31t6.5 36.5zM443 499q0 38 -26 63.5t-82 25.5h-141v-181h141q56 0 82 27t26 65zM582 200q0 -45 -16.5 -82t-44.5 -63.5t-65 -40.5t-78 -14h-305v696h278q53 0 94 -14t68.5 -39 t41.5 -60t14 -77q0 -20 -4.5 -40t-15.5 -38.5t-29.5 -35.5t-46.5 -29v-4q27 -8 47.5 -25t34 -39t20.5 -46.5t7 -48.5z"/>
<glyph glyph-name="C" horiz-adv-x="572" unicode="C" d="M551 156q-26 -76 -89.5 -119t-154.5 -43q-65 0 -114 20.5t-81 56t-48 84t-16 104.5v178q0 52 16 100t48 84.5t81 58t114 21.5q92 0 154.5 -44.5t88.5 -117.5l-114 -45q-13 41 -45.5 66.5t-83.5 25.5q-35 0 -60.5 -12t-42.5 -32.5t-25.5 -46.5t-8.5 -53v-185 q0 -29 8.5 -55.5t25.5 -47.5t42.5 -33.5t60.5 -12.5q50 0 83 26.5t46 69.5z"/>
<glyph glyph-name="D" horiz-adv-x="638" unicode="D" d="M326 696q78 0 141 -30t96 -99q19 -38 23 -90t4 -117q0 -73 -4 -127t-21 -95q-17 -39 -43.5 -65.5t-59.5 -42.5t-72 -23t-81 -7h-236v696h253zM194 110h119q44 0 74 12.5t48 35t26 54.5t8 71v130q0 93 -41 133t-117 40h-117v-476z"/>
<glyph glyph-name="E" horiz-adv-x="564" unicode="E" d="M73 0v696h466v-110h-345v-182h294v-106h-294v-188h345v-110h-466z"/>
<glyph glyph-name="F" horiz-adv-x="545" unicode="F" d="M194 586v-188h294v-105h-294v-293h-121v696h466v-110h-345z"/>
<glyph glyph-name="G" horiz-adv-x="618" unicode="G" d="M308 104q30 0 55.5 11.5t44 31t29.5 45.5t11 54v30h-145v104h265v-137q0 -54 -20 -99.5t-54.5 -79t-82.5 -52t-103 -18.5q-66 0 -114.5 20.5t-80.5 56t-47.5 84t-15.5 104.5v178q0 52 15.5 100t47 84.5t79.5 58t113 21.5q92 0 155 -44.5t89 -117.5l-114 -45 q-13 41 -46.5 66.5t-84.5 25.5q-35 0 -60 -12t-41 -32.5t-24 -46.5t-8 -53v-188q0 -28 8.5 -55t25.5 -48t42.5 -34t60.5 -13z"/>
<glyph glyph-name="H" horiz-adv-x="655" unicode="H" d="M462 0v298h-268v-298h-121v696h121v-292h268v292h120v-696h-120z"/>
<glyph glyph-name="I" horiz-adv-x="268" unicode="I" d="M74 0v696h122v-696h-122z"/>
<glyph glyph-name="J" horiz-adv-x="489" unicode="J" d="M424 224q0 -65 -19 -109t-50.5 -70.5t-73 -38t-86.5 -11.5q-57 0 -105 22t-85 64l86 79q22 -23 49 -38.5t52 -15.5q21 0 40.5 4.5t35.5 18t25.5 37.5t9.5 62v468h121v-472z"/>
<glyph glyph-name="K" horiz-adv-x="638" unicode="K" d="M502 0l-195 324l-113 -131v-193h-121v696h122v-337l2 -1l117 143l164 195h144l-235 -278l258 -418h-143z"/>
<glyph glyph-name="L" horiz-adv-x="564" unicode="L" d="M73 0v696h121v-586h345v-110h-466z"/>
<glyph glyph-name="M" horiz-adv-x="765" unicode="M" d="M581 0v413h-3l-37 -89l-51 -112l-54 -114h-97l-40 85l-66 146l-36 85l-3 -3v-411h-121v696h113l91 -199q29 -63 55.5 -125t53.5 -125h4l56 133l51 117l89 199h116v-696h-121z"/>
<glyph glyph-name="N" horiz-adv-x="692" unicode="N" d="M509 0l-215 324l-97 159l-3 -1v-482h-121v696h112l195 -296l118 -188l2 2v482h121v-696h-112z"/>
<glyph glyph-name="O" horiz-adv-x="610" unicode="O" d="M304 587q-35 0 -60.5 -12t-42.5 -32.5t-25.5 -46.5t-8.5 -53v-187q0 -29 8.5 -55.5t25.5 -47.5t42.5 -33.5t60.5 -12.5q32 0 57.5 11.5t43 31.5t27 47t9.5 59v187q0 30 -9.5 56t-27 45.5t-43 31t-57.5 11.5zM304 701q60 0 108 -20t82 -55t52 -83.5t18 -105.5v-178 q0 -61 -18.5 -110t-52.5 -83.5t-82 -53t-107 -18.5q-65 0 -114 21.5t-81 58t-48 84.5t-16 101v178q0 52 16 100t48 84.5t81 58t114 21.5z"/>
<glyph glyph-name="P" horiz-adv-x="591" unicode="P" d="M457 481q0 54 -32 79.5t-84 25.5h-147v-209h151q53 0 82.5 31t29.5 73zM581 478q0 -42 -16.5 -80t-46.5 -67t-72 -46.5t-93 -17.5h-159v-267h-121v696h271q49 0 92 -14t75.5 -41t51 -68t18.5 -95z"/>
<glyph glyph-name="Q" horiz-adv-x="618" unicode="Q" d="M307 586q-39 0 -65.5 -14t-42.5 -37.5t-22.5 -52.5t-6.5 -59v-166q0 -29 8.5 -55.5t25.5 -47.5t42.5 -33.5t60.5 -12.5q36 0 65 19l-83 66l67 80q20 -16 40.5 -32.5t40.5 -32.5q8 24 8 49v166q0 31 -7 60.5t-23.5 52.5t-43 36.5t-64.5 13.5zM307 701q60 0 108.5 -20 t82.5 -55t52 -83.5t18 -105.5v-178q0 -75 -29 -133l86 -69l-66 -77l-85 66q-66 -52 -167 -52q-65 0 -113.5 21.5t-80.5 58t-48 84.5t-16 101v178q0 52 16 100t48 84.5t80.5 58t113.5 21.5z"/>
<glyph glyph-name="R" horiz-adv-x="625" unicode="R" d="M458 496q0 49 -30 71t-78 22h-156v-194h152q49 0 80.5 26t31.5 75zM444 0l-121 287h-129v-287h-121v696h296q44 0 83 -14t68 -39.5t45.5 -63t16.5 -83.5q0 -67 -36.5 -117t-102.5 -74l137 -305h-136z"/>
<glyph glyph-name="S" horiz-adv-x="569" unicode="S" d="M458 537q-44 29 -89 40.5t-83 11.5q-64 0 -91 -25.5t-27 -62.5q0 -22 9.5 -36.5t30.5 -25t53 -18t77 -15.5q38 -7 75 -18.5t66 -34t46.5 -58t17.5 -89.5q0 -51 -21 -90.5t-57 -66.5t-83.5 -41t-100.5 -14q-69 0 -141.5 20.5t-134.5 75.5l73 94q45 -42 98 -59.5t111 -17.5 t93.5 24t35.5 71q0 42 -31.5 63.5t-95.5 31.5q-45 6 -88.5 16.5t-77.5 32t-54.5 57.5t-20.5 94q0 52 20 90.5t53 64t75.5 38t87.5 12.5q67 0 125.5 -15t108.5 -50z"/>
<glyph glyph-name="T" horiz-adv-x="521" unicode="T" d="M319 588v-588h-121v588h-193v108h508v-108h-194z"/>
<glyph glyph-name="U" horiz-adv-x="638" unicode="U" d="M579 247q0 -57 -19.5 -103.5t-54 -79.5t-82.5 -51t-104 -18q-59 0 -107 19.5t-82 54t-52 81.5t-18 102v444h120v-435q0 -32 9.5 -60t27.5 -48.5t44 -32.5t59 -12q62 0 99.5 38t37.5 110v440h122v-449z"/>
<glyph glyph-name="V" horiz-adv-x="575" unicode="V" d="M336 0h-99l-236 696h129l100 -318l56 -184h5l53 183l98 319h129z"/>
<glyph glyph-name="W" horiz-adv-x="839" unicode="W" d="M419 473q-1 0 -1.5 -0.5t-1.5 -0.5q-17 -64 -33.5 -127t-33.5 -127q-2 -7 -6.5 -24t-11 -39t-13 -46t-13 -46t-11 -39t-6.5 -25h-101l-181 696h129q20 -86 39.5 -170t38.5 -170l28 -127h4l32 126q21 76 35.5 129.5t25.5 91.5t18.5 66t15.5 54h92q25 -86 49 -172t47 -172 l33 -124h4q7 29 13 61.5t12 61.5q17 78 37.5 169t41.5 176h128q-45 -175 -90 -348t-91 -348h-100q-17 63 -34.5 125.5t-35.5 125.5q-14 56 -29 111.5t-30 111.5z"/>
<glyph glyph-name="X" horiz-adv-x="576" unicode="X" d="M439 0l-152 257l-151 -257h-136l225 356l-212 340h137l137 -240l138 240h136l-211 -340l225 -356h-136z"/>
<glyph glyph-name="Y" horiz-adv-x="557" unicode="Y" d="M553 696q-54 -103 -108 -205t-109 -205v-286h-115v286q-55 103 -108.5 205t-108.5 205h129l84 -172q16 -33 31 -66.5t30 -67.5h2l62 137l83 169h128z"/>
<glyph glyph-name="Z" horiz-adv-x="527" unicode="Z" d="M30 0v104l323 485h-310v107h454v-99l-323 -486h323v-111h-467z"/>
<glyph glyph-name="bracketleft" horiz-adv-x="288" unicode="[" d="M70 -100v799h199v-82h-93v-636h93v-81h-199z"/>
<glyph glyph-name="backslash" horiz-adv-x="343" unicode="\" d="M-8 725h93l252 -767h-93z"/>
<glyph glyph-name="bracketright" horiz-adv-x="288" unicode="]" d="M22 -100v81h93v636h-93v82h199v-799h-199z"/>
<glyph glyph-name="asciicircum" d="M404 282l-140 298l-140 -299h-100l197 414h87l197 -413h-101z" unicode="^"/>
<glyph glyph-name="underscore" horiz-adv-x="500" unicode="_" d="M0 -145v76h500v-76h-500z"/>
<glyph glyph-name="grave" horiz-adv-x="504" unicode="`" d="M275 544l-123 179l108 36l82 -186z"/>
<glyph glyph-name="a" horiz-adv-x="499" unicode="a" d="M142 152q0 -11 4.5 -22t15 -19.5t27 -14t41.5 -5.5q19 0 37 3.5t32.5 11.5t24.5 21t12 33q1 6 1 15v32h-115q-43 0 -61.5 -16t-18.5 -39zM245 500q42 0 79 -7.5t65 -26.5t44.5 -50.5t16.5 -79.5v-336h-113v44l-2 1q-20 -26 -55.5 -38t-73.5 -12q-79 0 -125 38.5 t-46 110.5q0 30 11 57t32 47.5t52.5 32.5t72.5 12h134v36q0 14 -4.5 27t-15.5 22.5t-30 15.5t-48 6q-41 0 -69 -10.5t-49 -30.5l-60 76q36 36 84 50.5t100 14.5z"/>
<glyph glyph-name="b" horiz-adv-x="515" unicode="b" d="M357 248q0 25 -2.5 50.5t-12 46.5t-28 34.5t-50.5 13.5q-31 0 -49.5 -14t-28 -35.5t-12.5 -47t-3 -48.5t2.5 -49t12 -48.5t28 -37.5t50.5 -15t50.5 14.5t28 36.5t12 48.5t2.5 50.5zM473 257q0 -44 -6 -90.5t-25 -84.5t-54 -62.5t-93 -24.5q-32 0 -65.5 11.5t-56.5 41.5 l-2 -1v-47h-113v727h113v-279l2 -1q25 27 58 40t64 13q56 0 90.5 -22.5t54 -57.5t26.5 -78t7 -85z"/>
<glyph glyph-name="c" horiz-adv-x="447" unicode="c" d="M430 67q-36 -35 -80 -54t-95 -19q-45 0 -86 14.5t-72.5 45t-50 78.5t-18.5 115t19.5 115t51.5 79t74 45t86 14q99 0 169 -70l-73 -79q-44 46 -94 46q-57 0 -87 -36t-30 -114q0 -77 29.5 -113t86.5 -36q25 0 50 13t46 34z"/>
<glyph glyph-name="d" horiz-adv-x="515" unicode="d" d="M350 248q0 23 -2.5 48.5t-12 47t-27.5 35.5t-49 14q-33 0 -51.5 -14.5t-28.5 -36.5t-12.5 -49t-2.5 -52q0 -23 2.5 -48t12.5 -45.5t28 -33.5t50 -13q31 0 49.5 14.5t28.5 36.5t12.5 47.5t2.5 48.5zM350 0v46l-2 2q-26 -29 -59 -41t-65 -12q-59 0 -94 23t-53 59.5 t-23.5 82.5t-5.5 91q0 42 8 86.5t29 81t57.5 59.5t93.5 23q32 0 62.5 -12t49.5 -36l2 1v272h113v-726h-113z"/>
<glyph glyph-name="e" horiz-adv-x="507" unicode="e" d="M252 398q-39 0 -65 -27t-31 -76h190q-3 51 -29.5 77t-64.5 26zM154 215q0 -23 6 -44.5t19 -38t33 -26.5t47 -10q22 0 55.5 10.5t61.5 36.5q18 -20 33 -39.5t33 -39.5q-42 -38 -91 -54t-96 -16q-39 0 -78 11t-70 39.5t-50.5 77t-19.5 124.5q0 72 19.5 120.5t50.5 78.5 t69.5 43t76.5 13q50 0 89.5 -17t67 -47.5t42 -74.5t14.5 -98v-49h-312z"/>
<glyph glyph-name="f" horiz-adv-x="302" unicode="f" d="M192 404v-404h-113v404h-58v91h58v96q0 35 11 60.5t30 42.5t45 25.5t55 8.5h73v-98h-55q-26 0 -36 -14.5t-10 -37.5v-83h101v-91h-101z"/>
<glyph glyph-name="g" horiz-adv-x="522" unicode="g" d="M158 247q0 -27 2.5 -53t12 -47t28.5 -33.5t51 -12.5q31 0 49.5 14t28 35.5t12.5 47t3 49.5q0 21 -2 47t-11 48t-27.5 37t-51.5 15t-51.5 -14t-28.5 -35.5t-12.5 -47.5t-2.5 -50zM456 495v-475q0 -63 -16.5 -105.5t-45.5 -68.5t-69.5 -37.5t-89.5 -11.5q-18 0 -40 3 t-45 10t-45.5 18.5t-41.5 28.5l59 83q25 -18 55.5 -29t66.5 -11q47 0 74.5 26t27.5 76v46h-2q-24 -28 -56 -40.5t-63 -12.5q-57 0 -93 22t-55.5 56.5t-26.5 77.5t-7 85q0 44 6 90.5t25.5 85t56 63.5t97.5 25q32 0 63 -12t52 -38h2v45h111z"/>
<glyph glyph-name="h" horiz-adv-x="529" unicode="h" d="M372 0v294q0 48 -21.5 74t-67.5 26q-41 0 -69 -26t-28 -74v-294h-113v726h113v-279h3q23 25 58 39t69 14q35 0 66 -11t54 -33t36 -55t13 -76v-325h-113z"/>
<glyph glyph-name="i" horiz-adv-x="247" unicode="i" d="M67 0v495h113v-495h-113zM67 592v104h113v-104h-113z"/>
<glyph glyph-name="j" horiz-adv-x="265" unicode="j" d="M190 -59q0 -64 -36.5 -103t-109.5 -39h-52v100h28q32 0 44 16.5t12 42.5v538h114v-555zM76 592v104h114v-104h-114z"/>
<glyph glyph-name="k" horiz-adv-x="520" unicode="k" d="M391 0q-37 56 -72.5 111t-72.5 111q-17 -19 -35 -37.5t-35 -38.5v-146h-112v726h112v-435h3l96 110l86 94h138l-179 -193q51 -76 101.5 -151.5t101.5 -150.5h-132z"/>
<glyph glyph-name="l" horiz-adv-x="265" unicode="l" d="M202 0q-29 0 -54 6t-44 21t-29.5 40.5t-10.5 63.5v595h113v-578q0 -28 12.5 -38t35.5 -10h20v-100h-43z"/>
<glyph glyph-name="m" horiz-adv-x="833" unicode="m" d="M660 0v295q0 48 -22.5 74.5t-70.5 26.5q-39 0 -66 -28t-27 -73v-295h-113v295q0 48 -23 74.5t-70 26.5q-39 0 -66.5 -28t-27.5 -73v-295h-113v495h113v-53q1 0 1.5 -0.5t1.5 -0.5q22 28 58.5 43.5t73.5 15.5q93 0 137 -71q32 33 71.5 52t85.5 19q75 0 122 -44.5 t47 -129.5v-326h-112z"/>
<glyph glyph-name="n" horiz-adv-x="529" unicode="n" d="M357 0v294q0 48 -21.5 74t-69.5 26q-41 0 -68 -26t-27 -74v-294h-113v496h113v-52h2q24 27 59.5 41.5t69.5 14.5q76 0 122 -43.5t46 -131.5v-325h-113z"/>
<glyph glyph-name="o" horiz-adv-x="515" unicode="o" d="M260 399q-29 0 -52 -15t-35 -41q-9 -20 -12.5 -44t-4.5 -53q0 -29 3 -53t12 -42q11 -26 33 -40.5t51 -14.5q32 0 57 17.5t36 53.5q5 14 7 35t2 53q0 58 -13 87q-11 29 -33.5 43t-50.5 14zM264 501q56 0 100.5 -21.5t71.5 -61.5q19 -29 27.5 -68.5t8.5 -84.5v-10 q0 -57 -8.5 -97.5t-25.5 -70.5q-29 -47 -78 -70.5t-108 -23.5q-56 0 -100 19t-71 59q-39 58 -39 165v11q0 40 5.5 76t19.5 64q26 55 77.5 84.5t119.5 29.5z"/>
<glyph glyph-name="p" horiz-adv-x="516" unicode="p" d="M172 246q0 -23 2.5 -49t12 -47.5t28 -35.5t49.5 -14t50 13.5t28.5 34.5t12.5 47t3 51q0 24 -2 50t-11 48t-27.5 36t-51.5 14q-32 0 -50.5 -14.5t-28 -36.5t-12.5 -48t-3 -49zM172 495v-44l3 -1q25 28 57 39t64 11q58 0 93.5 -23.5t54.5 -60.5t25 -82t6 -88t-7.5 -87.5 t-28.5 -81t-58 -60t-97 -23.5q-31 0 -61 11.5t-49 35.5h-2v-241h-112v695h112z"/>
<glyph glyph-name="q" horiz-adv-x="522" unicode="q" d="M169 246q0 -25 2.5 -50.5t12 -46.5t28.5 -34.5t51 -13.5q31 0 49 14t28 35.5t13 47t3 48.5t-2.5 49.5t-12 49t-28 37.5t-49.5 15q-33 0 -51.5 -14.5t-28.5 -37t-12.5 -49t-2.5 -50.5zM53 238q0 47 7.5 94t28.5 84.5t58.5 60.5t97.5 23q32 0 60 -12.5t49 -38.5h2v46h113 v-697h-113v249h-2q-25 -27 -57.5 -40t-62.5 -13q-58 0 -93 22t-54.5 56.5t-26.5 78t-7 87.5z"/>
<glyph glyph-name="r" horiz-adv-x="388" unicode="r" d="M270 395q-41 0 -67 -25t-26 -73v-298h-113v496h111v-59h4q45 64 120 64q28 0 51 -6t43 -20l-42 -102q-21 13 -41 18t-40 5z"/>
<glyph glyph-name="s" horiz-adv-x="463" unicode="s" d="M433 151q0 -37 -16 -66t-43.5 -49.5t-64 -31t-78.5 -10.5q-55 0 -109.5 15t-105.5 60l61 81q35 -32 74.5 -45.5t84.5 -13.5q36 0 61 15t25 42q0 26 -21 38.5t-67 17.5q-33 4 -66.5 10t-60.5 21t-44 41t-17 69q0 38 15 67t40 48.5t58.5 29.5t71.5 10q57 0 103 -12.5 t87 -43.5l-54 -86q-35 23 -69.5 33t-64.5 10q-40 0 -60 -15.5t-20 -37.5q0 -25 28 -36t90 -18q30 -3 59.5 -11.5t52 -24.5t36.5 -42t14 -65z"/>
<glyph glyph-name="t" horiz-adv-x="316" unicode="t" d="M217 0q-55 0 -91 32t-36 92v280h-57v92h58v129h110v-129h76v-92h-75v-249q0 -26 10 -41t36 -15h37v-99h-68z"/>
<glyph glyph-name="u" horiz-adv-x="533" unicode="u" d="M171 495v-295q0 -51 21 -76t71 -25q40 0 67.5 26.5t27.5 74.5v295h113v-495h-113v49h-3q-23 -28 -58 -41.5t-68 -13.5q-77 0 -123.5 43t-46.5 133v325h112z"/>
<glyph glyph-name="v" horiz-adv-x="480" unicode="v" d="M243 155l43 138l67 202h122l-189 -495h-91l-190 495h122q17 -49 33 -100t33 -102q12 -35 24 -69t23 -69h3z"/>
<glyph glyph-name="w" horiz-adv-x="736" unicode="w" d="M520 168q6 21 11.5 43l10.5 42q4 15 8.5 31.5t11.5 42.5t18 66t29 102h121q-41 -125 -81.5 -247.5t-82.5 -247.5h-99q-18 57 -35.5 115t-34.5 116l-29 94h-2l-31 -106q-32 -110 -67 -219h-99l-164 495h121q11 -35 20.5 -70t19.5 -70q14 -46 25.5 -92t25.5 -92h4 q8 26 13 41.5t8.5 28t8 28t12.5 41.5l58 185h95q19 -60 37.5 -121t36.5 -122l24 -84h6z"/>
<glyph glyph-name="x" horiz-adv-x="501" unicode="x" d="M354 0l-104 167l-103 -167h-136l180 253l-172 242h135l96 -160l97 160h135l-172 -243l180 -252h-136z"/>
<glyph glyph-name="y" horiz-adv-x="470" unicode="y" d="M252 -100q-21 -57 -60 -78.5t-84 -21.5h-42v95h31q22 0 37 15.5t23 36.5l25 78l-182 470h122l64 -182l49 -156h4l49 154l63 184h119z"/>
<glyph glyph-name="z" horiz-adv-x="449" unicode="z" d="M31 0v94l249 304h-235v97h372v-92l-248 -301h248v-102h-386z"/>
<glyph glyph-name="braceleft" horiz-adv-x="288" unicode="{" d="M196 -98q-41 0 -70 26.5t-34 71.5q-1 8 -1.5 17t-0.5 18v101v18.5t-1 17.5q-3 41 -22 63.5t-54 24.5v77q39 4 58 34t19 76v133q0 53 30.5 84.5t75.5 31.5h83v-78h-41q-12 0 -20.5 -7t-13.5 -17.5t-7 -23t-2 -24.5v-121q0 -28 -7.5 -49t-19 -36.5t-25 -25t-24.5 -14.5v-2 q13 -5 26.5 -14.5t24.5 -25t18 -36t7 -47.5v-124q0 -12 1 -25t5.5 -23.5t13 -17t23.5 -6.5h41v-77h-83z"/>
<glyph glyph-name="bar" horiz-adv-x="232" unicode="|" d="M68 -195v918h95v-918h-95z"/>
<glyph glyph-name="braceright" horiz-adv-x="288" unicode="}" d="M276 260h-4q-21 0 -35.5 -11t-23 -29t-11.5 -40.5t-3 -43.5v-101v-18t-2 -17q-5 -45 -33.5 -71.5t-69.5 -26.5h-83v77h41q14 0 22.5 6.5t13 17t6 23.5t1.5 25v124q0 27 7 47.5t18 36t24.5 25t26.5 14.5v2q-12 5 -25 14.5t-24.5 25t-19 36.5t-7.5 49v121q0 12 -1.5 24.5 t-6 23t-13 17.5t-22.5 7h-41v76h82q49 0 77.5 -31.5t28.5 -82.5v-133q0 -21 4.5 -40.5t14.5 -34.5t24 -24.5t34 -10.5v-77z"/>
<glyph glyph-name="asciitilde" d="M494 308q-29 -55 -62 -81t-77 -26q-22 0 -44.5 9t-45 20.5t-44 20.5t-39.5 9q-24 0 -41.5 -12t-40.5 -41q-17 11 -33 21.5t-33 21.5q29 53 63.5 79t80.5 26q23 0 46 -9.5t44.5 -21t41.5 -20.5t38 -9q23 0 40.5 15t38.5 43z" unicode="~"/>
<glyph glyph-name="exclamdown" horiz-adv-x="268" unicode="¡" d="M195 493v-114h-119v114h119zM88 308h97l7 -511h-112z"/>
<glyph glyph-name="cent" d="M177 247q0 -125 80 -145v290q-39 -11 -59.5 -46.5t-20.5 -98.5zM257 -4q-40 4 -75.5 21t-62.5 47.5t-42.5 75.5t-15.5 107q0 61 16 105.5t43 75.5t62.5 48t74.5 22v103h45v-101q92 -4 159 -70l-73 -79q-41 41 -86 46v-299q23 2 45 14.5t42 32.5l74 -78q-34 -32 -74 -51 t-87 -21v-112h-45v113z" unicode="¢"/>
<glyph glyph-name="sterling" d="M393 526q-29 43 -58 56t-61 13q-14 0 -28 -5.5t-26 -16t-19.5 -27t-7.5 -38.5q0 -17 4.5 -33.5t11 -33.5t13.5 -35t11 -39h150v-87h-146q-2 -46 -13 -91.5t-37 -87.5h295v-101h-443v86q33 44 53.5 90.5t24.5 103.5h-80v87h67q-11 38 -25.5 73t-14.5 70q0 36 12.5 70 t38 61t64.5 43t92 16q34 0 63 -3.5t55 -15t50 -32.5t50 -57z" unicode="£"/>
<glyph glyph-name="currency" horiz-adv-x="556" unicode="¤" d="M33 500l12 12t18.5 19t18.5 19l12 12l68 -68q56 35 114 35q59 0 114 -34q3 4 12.5 13.5l20.5 20.5l20.5 20.5t13.5 12.5l61 -62l-68 -67q35 -56 35 -113q0 -30 -8.5 -57t-25.5 -56q15 -14 34 -32.5t33 -33.5l-61 -62l-67 67q-53 -35 -114 -35q-30 0 -59 9t-55 26l-68 -67 q-2 3 -11 12t-19.5 19t-19.5 19l-11 11l68 67q-34 55 -34 113q0 56 34 113zM155 320q0 -24 9.5 -46t26 -38.5t38 -26t46.5 -9.5t47 9.5t38.5 26t26 38t9.5 46.5t-9.5 47t-26 38.5t-38.5 25.5t-47 9t-46.5 -9.5t-38 -25.5t-26 -38t-9.5 -47z"/>
<glyph glyph-name="yen" d="M268 386l58 146l72 164h123q-40 -84 -80 -166.5t-81 -166.5h110v-68h-145l-5 -17v-52h150v-68h-150v-158h-114v158h-148v68h148v52q-1 6 -2 8.5t-3 8.5h-143v68h108q-42 84 -82 166.5t-81 166.5h129l81 -186q14 -31 26 -62t25 -62h4z" unicode="¥"/>
<glyph glyph-name="brokenbar" horiz-adv-x="232" unicode="¦" d="M163 232v-427h-95v427h95zM68 294v429h95v-429h-95z"/>
<glyph glyph-name="section" horiz-adv-x="488" unicode="§" d="M185 391q-31 -18 -31 -51q0 -20 14 -33t39 -24q29 -13 62.5 -22.5t62.5 -22.5q23 17 23 50q0 31 -27.5 48t-88.5 36q-14 4 -25.5 8t-28.5 11zM454 292q0 -32 -15.5 -62.5t-37.5 -46.5q19 -18 31.5 -42.5t12.5 -51.5q0 -39 -15.5 -70.5t-43 -53.5t-65.5 -33.5t-82 -11.5 q-58 0 -110.5 21.5t-89.5 58.5l63 73q30 -30 66.5 -45t71.5 -15q42 0 70.5 16.5t28.5 54.5q0 27 -25.5 45t-84.5 36q-41 12 -73.5 26t-55 33.5t-35 45.5t-12.5 64q0 32 18 60.5t42 45.5q-22 20 -35 44t-13 55q0 36 14.5 66t40 51t60 32.5t74.5 11.5q55 0 101 -13t88 -46 l-57 -78q-37 26 -71 34.5t-66 8.5q-33 0 -57 -17.5t-24 -43.5q0 -20 14 -33t35 -22.5t45.5 -16.5t45.5 -14q27 -9 53.5 -21.5t47 -31.5t33 -46.5t12.5 -67.5z"/>
<glyph glyph-name="dieresis" horiz-adv-x="504" unicode="¨" d="M92 583v109h119v-109h-119zM292 583v109h118v-109h-118z"/>
<glyph glyph-name="copyright" horiz-adv-x="812" unicode="©" d="M565 218q-17 -50 -57 -77.5t-98 -27.5q-41 0 -71.5 13t-51 35.5t-30.5 53t-10 65.5v109q0 33 10 63t30.5 53.5t51 37t71.5 13.5q58 0 97.5 -28.5t56.5 -76.5l-76 -30q-8 25 -28 41.5t-50 16.5q-42 0 -62 -26.5t-20 -59.5v-115q0 -17 5 -32.5t15 -28.5t25.5 -20.5 t36.5 -7.5q30 0 50 17t28 44zM408 627q-59 0 -109.5 -22t-87.5 -60t-58 -90t-21 -113t21 -113t58 -90t87.5 -59.5t109.5 -21.5t109.5 21.5t87 59.5t57.5 90t21 113q0 62 -21 114.5t-57.5 90.5t-87 59t-109.5 21zM408 -12q-76 0 -140.5 26t-111.5 73t-73.5 112t-26.5 143 q0 76 27 141.5t74.5 112.5t111.5 74t139 27t139 -26.5t111.5 -74t74.5 -112.5t27 -142t-27 -141.5t-74.5 -112t-111.5 -74t-139 -26.5z"/>
<glyph glyph-name="ordfeminine" horiz-adv-x="348" unicode="ª" d="M108 382q0 -13 12 -23.5t42 -10.5q25 0 46 9.5t21 35.5q0 4 0.5 6t0.5 15h-73q-26 0 -37.5 -9.5t-11.5 -22.5zM170 610q30 0 56.5 -5t47 -18t32 -34t11.5 -54v-220h-87v38q-16 -22 -41 -32t-48 -10q-56 0 -86.5 26.5t-30.5 75.5q0 41 30 69t90 28h86v22q0 17 -14.5 28.5 t-46.5 11.5q-53 0 -80 -29q-13 14 -25.5 26.5t-24.5 26.5q26 28 60.5 39t70.5 11z"/>
<glyph glyph-name="guillemotleft" d="M182 28l-137 200l137 200h109l-134 -200l134 -200h-109zM382 28l-137 200l137 200h109l-133 -200l133 -200h-109z" unicode="«"/>
<glyph glyph-name="logicalnot" d="M500 62h-94v189h-382v90h476v-279z" unicode="¬"/>
<glyph glyph-name="sfthyphen" horiz-adv-x="416" unicode="­" d="M49 211v103h318v-103h-318z"/>
<glyph glyph-name="registered" horiz-adv-x="543" unicode="®" d="M272 657q-36 0 -66.5 -13t-53 -35.5t-35 -53.5t-12.5 -67t12.5 -66.5t35 -53t53 -35.5t66.5 -13t66 13t52.5 35.5t35 53t12.5 66.5t-12.5 67t-35 53.5t-52.5 35.5t-66 13zM272 277q-46 0 -85 16t-68 44t-45.5 67t-16.5 84q0 46 17 85t46 67.5t68.5 44.5t83.5 16 q46 0 85 -16t68 -44.5t45.5 -67.5t16.5 -85q0 -45 -17 -84t-46.5 -67t-68.5 -44t-83 -16zM238 567v-59h47q15 0 24.5 8.5t9.5 22.5q0 28 -32 28h-49zM273 464h-35v-97h-47v243h99q31 0 53 -19t22 -52q0 -45 -44 -67l52 -105h-53z"/>
<glyph glyph-name="macron" horiz-adv-x="504" unicode="¯" d="M109 589v97h301v-97h-301z"/>
<glyph glyph-name="degree" horiz-adv-x="409" unicode="°" d="M277 558q0 29 -21 49.5t-52 20.5q-29 0 -50.5 -20.5t-21.5 -49.5t21.5 -50t50.5 -21q31 0 52 21t21 50zM353 558q0 -30 -11.5 -56.5t-32 -46t-47.5 -30.5t-58 -11t-58 11t-47.5 30.5t-32 46t-11.5 56.5t11.5 56t32 45.5t47.5 30.5t58 11t58 -11t47.5 -30.5t32 -45.5 t11.5 -56z"/>
<glyph glyph-name="plusminus" d="M26 0v89h477v-89h-477zM312 306v-174h-95v174h-189v90h189v178h95v-178h189v-90h-189z" unicode="±"/>
<glyph glyph-name="twosuperior" horiz-adv-x="327" unicode="²" d="M23 665q8 57 49.5 90.5t94.5 33.5q30 0 55 -7.5t44 -22t29.5 -36.5t10.5 -50q0 -23 -9 -45.5t-26 -39.5q-9 -10 -27 -29.5t-37.5 -40.5t-37 -41t-26.5 -30h159v-78h-280v70l176 193q17 19 17 37q0 17 -12.5 29.5t-35.5 12.5q-20 0 -36 -14.5t-20 -43.5z"/>
<glyph glyph-name="threesuperior" horiz-adv-x="331" unicode="³" d="M106 488q5 -23 20.5 -34.5t35.5 -11.5q26 0 41.5 16t15.5 40t-15.5 38.5t-44.5 14.5h-37v69h35q29 0 43.5 13.5t14.5 32.5q0 20 -14.5 33t-37.5 13q-16 0 -32 -11.5t-22 -36.5l-85 12q6 26 19.5 47t32 35.5t41.5 22.5t48 8q37 0 63.5 -10t44 -26.5t25.5 -38t8 -45.5 q0 -20 -10.5 -44t-38.5 -39q30 -15 42 -40.5t12 -47.5q0 -58 -41 -95t-108 -37q-23 0 -45.5 6t-42 19t-34 34t-20.5 51z"/>
<glyph glyph-name="acute" horiz-adv-x="504" unicode="´" d="M188 569l79 190l107 -34l-118 -181z"/>
<glyph glyph-name="mu" horiz-adv-x="537" unicode="µ" d="M363 0v45q-1 1 -3 1q-23 -26 -54 -38.5t-65 -12.5t-63 16l-1 -1v-210h-113v695h113v-295q0 -43 22.5 -71t70.5 -28q40 0 66.5 25.5t26.5 73.5v295h113v-495h-113z"/>
<glyph glyph-name="mu" horiz-adv-x="537" unicode="μ" d="M363 0v45q-1 1 -3 1q-23 -26 -54 -38.5t-65 -12.5t-63 16l-1 -1v-210h-113v695h113v-295q0 -43 22.5 -71t70.5 -28q40 0 66.5 25.5t26.5 73.5v295h113v-495h-113z"/>
<glyph glyph-name="paragraph" horiz-adv-x="563" unicode="¶" d="M224 317h-32q-38 0 -67.5 16t-49.5 42.5t-30 60t-10 69.5t11.5 72t34 64t56.5 45.5t80 17.5h62.5t88 0.5t89 0.5h63.5v-76h-43v-709h-87v709h-77v-709h-89v397z"/>
<glyph glyph-name="periodcentered" horiz-adv-x="271" unicode="·" d="M67 205v138h136v-138h-136z"/>
<glyph glyph-name="cedilla" horiz-adv-x="447" unicode="¸" d="M214 44q15 0 29.5 -0.5t29.5 -0.5q-7 -20 -13.5 -40t-12.5 -40q27 -2 46 -11t30.5 -21.5t16.5 -27t5 -27.5q0 -15 -7 -31t-21 -29t-35.5 -21t-50.5 -8q-26 0 -51.5 5.5t-48.5 18.5l21 52q23 -11 40 -13.5t32 -2.5q17 0 30.5 7t13.5 26q0 17 -12.5 24.5t-30.5 7.5 q-7 0 -17 -2l-30 20z"/>
<glyph glyph-name="onesuperior" horiz-adv-x="278" unicode="¹" d="M110 369v323l-61 -40v88l72 46h78v-417h-89z"/>
<glyph glyph-name="ordmasculine" horiz-adv-x="356" unicode="º" d="M180 534q-38 0 -54 -33q-6 -11 -8.5 -26.5t-2.5 -32.5q0 -18 2 -32.5t8 -25.5q14 -33 52 -33q41 0 57 42q6 18 6 54q0 38 -8 54q-7 17 -21 25t-31 8zM183 610q38 0 70 -14t51 -42q14 -19 20 -46.5t6 -60.5q0 -32 -6 -60.5t-19 -48.5q-20 -31 -54 -47.5t-76 -16.5 q-40 0 -71 13.5t-50 39.5q-15 22 -21.5 50.5t-6.5 65.5q1 26 4.5 49t13.5 42q18 37 54.5 56.5t84.5 19.5z"/>
<glyph glyph-name="guillemotright" d="M246 28l133 200l-133 200h109l136 -200l-136 -200h-109zM46 28l132 200l-132 200h109l136 -200l-136 -200h-109z" unicode="»"/>
<glyph glyph-name="onequarter" horiz-adv-x="860" unicode="¼" d="M731 59v-59h-88v59h-190v65l155 293h98l-151 -282h88v95h88v-95h36v-76h-36zM235 -17h-89l425 730h90zM154 279v323l-61 -40v88l72 46h78v-417h-89z"/>
<glyph glyph-name="onehalf" horiz-adv-x="860" unicode="½" d="M139 279v323l-61 -40v88l72 46h78v-417h-89zM217 -17h-89l425 730h90zM499 0v70l176 193v-1q17 20 17 38q0 17 -13 29.5t-37 12.5q-20 0 -35 -14.5t-20 -43.5l-87 12q8 57 48.5 90t93.5 33q30 0 55.5 -7.5t44 -21.5t29.5 -36t11 -50q0 -22 -9 -45t-25 -40l-129 -141h160 v-78h-280z"/>
<glyph glyph-name="threequarters" horiz-adv-x="860" unicode="¾" d="M778 59v-59h-88v59h-190v65l155 293h98l-151 -282h88v95h88v-95h36v-76h-36zM283 -17h-89l425 730h90zM131 398q5 -23 20.5 -34.5t35.5 -11.5q26 0 41.5 16t15.5 40t-15.5 38.5t-44.5 14.5h-37v69h35q29 0 43.5 13.5t14.5 32.5q0 20 -14.5 33t-37.5 13q-16 0 -32 -11.5 t-22 -36.5l-85 12q6 26 19.5 47t32 35.5t41.5 22.5t48 8q37 0 63.5 -10t44 -26.5t25.5 -38t8 -45.5q0 -20 -10.5 -44t-38.5 -39q30 -15 42 -40.5t12 -47.5q0 -58 -41 -95t-108 -37q-23 0 -45.5 6t-42 19t-34 34t-20.5 51z"/>
<glyph glyph-name="questiondown" horiz-adv-x="472" unicode="¿" d="M297 492v-113h-118v113h118zM27 -17q0 28 8 51.5t20.5 43t28.5 37t32 34.5q25 26 44 54t19 64v36h117v-39q0 -53 -25.5 -95t-61.5 -84q-20 -22 -38 -47.5t-18 -51.5q0 -14 5 -29t16.5 -27t28.5 -20t41 -8t42 9.5t30.5 25t19 34.5t8.5 38q29 -5 58 -8t58 -8 q-8 -50 -29.5 -87.5t-52 -63t-67.5 -38t-77 -12.5q-48 0 -86.5 14.5t-65 40t-41 60.5t-14.5 76z"/>
<glyph glyph-name="Agrave" horiz-adv-x="629" unicode="À" d="M319 735l-192 97l74 84l165 -125zM361 398l-46 143h-3l-45 -140l-47 -144h187zM498 0l-55 154h-258l-56 -154h-127l263 696h98l263 -696h-128z"/>
<glyph glyph-name="Aacute" horiz-adv-x="629" unicode="Á" d="M235 791l165 125l74 -84l-192 -97zM361 398l-46 143h-3l-45 -140l-47 -144h187zM498 0l-55 154h-258l-56 -154h-127l263 696h98l263 -696h-128z"/>
<glyph glyph-name="Acircumflex" horiz-adv-x="629" unicode="Â" d="M313 815l-147 -82l-38 48l149 124h76l147 -123l-40 -49zM361 398l-46 143h-3l-45 -140l-47 -144h187zM498 0l-55 154h-258l-56 -154h-127l263 696h98l263 -696h-128z"/>
<glyph glyph-name="Atilde" horiz-adv-x="629" unicode="Ã" d="M243 875q19 0 37.5 -7.5t35.5 -16.5t32.5 -16.5t27.5 -7.5q17 0 32 11t32 36l60 -35q-24 -52 -52 -75.5t-62 -23.5q-19 0 -37.5 7t-36 16t-34 16t-30.5 7q-17 0 -33 -9.5t-36 -35.5l-57 33q23 48 53 74.5t68 26.5zM361 398l-46 143h-3l-45 -140l-47 -144h187zM498 0 l-55 154h-258l-56 -154h-127l263 696h98l263 -696h-128z"/>
<glyph glyph-name="Adieresis" horiz-adv-x="629" unicode="Ä" d="M154 757v111h121v-111h-121zM352 757v111h120v-111h-120zM361 398l-46 143h-3l-45 -140l-47 -144h187zM498 0l-55 154h-258l-56 -154h-127l263 696h98l263 -696h-128z"/>
<glyph glyph-name="Aring" horiz-adv-x="629" unicode="Å" d="M202 821q0 22 9 42t24 34.5t35.5 23t43.5 8.5t43 -8.5t35 -23t24 -34.5t9 -42t-9 -41.5t-24 -34t-35 -23t-43 -8.5t-43.5 8.5t-35.5 23t-24 34t-9 41.5zM361 821q0 20 -13.5 33t-33.5 13t-34 -13t-14 -33q0 -19 14 -32.5t34 -13.5t33.5 13.5t13.5 32.5zM361 398l-46 143 h-3l-45 -140l-47 -144h187zM498 0l-55 154h-258l-56 -154h-127l263 696h98l263 -696h-128z"/>
<glyph glyph-name="AE" horiz-adv-x="1034" unicode="Æ" d="M515 585q-46 -77 -92 -152t-92 -152h186v304h-2zM517 0v176h-247q-26 -45 -53 -88t-54 -88h-137l433 696h524v-110h-345v-183h294v-105h-294v-189h345v-109h-466z"/>
<glyph glyph-name="Ccedilla" horiz-adv-x="572" unicode="Ç" d="M551 156q-26 -74 -86 -116.5t-147 -45.5l-9 -31q27 -2 46 -11t30.5 -21.5t16.5 -27t5 -27.5q0 -15 -7 -31t-21 -29t-35.5 -21t-50.5 -8q-26 0 -51.5 5.5t-48.5 18.5l21 52q23 -11 40 -13.5t32 -2.5q17 0 30.5 7t13.5 26q0 17 -12.5 24.5t-30.5 7.5q-7 0 -17 -2l-30 20 l21 67q-54 7 -94 30t-66.5 57.5t-39.5 79t-13 95.5v178q0 52 16 100t48 84.5t81 58t114 21.5q92 0 154.5 -44.5t88.5 -117.5l-114 -45q-13 41 -45.5 66.5t-83.5 25.5q-35 0 -60.5 -12t-42.5 -32.5t-25.5 -46.5t-8.5 -53v-185q0 -29 8.5 -55.5t25.5 -47.5t42.5 -33.5 t60.5 -12.5q50 0 83 26.5t46 69.5z"/>
<glyph glyph-name="Egrave" horiz-adv-x="564" unicode="È" d="M310 735l-192 97l74 84l165 -125zM73 0v696h466v-110h-345v-182h294v-106h-294v-188h345v-110h-466z"/>
<glyph glyph-name="Eacute" horiz-adv-x="564" unicode="É" d="M215 791l165 125l74 -84l-192 -97zM73 0v696h466v-110h-345v-182h294v-106h-294v-188h345v-110h-466z"/>
<glyph glyph-name="Ecircumflex" horiz-adv-x="564" unicode="Ê" d="M299 815l-147 -82l-38 48l149 124h76l147 -123l-40 -49zM73 0v696h466v-110h-345v-182h294v-106h-294v-188h345v-110h-466z"/>
<glyph glyph-name="Edieresis" horiz-adv-x="564" unicode="Ë" d="M142 753v109h119v-109h-119zM342 753v109h118v-109h-118zM73 0v696h466v-110h-345v-182h294v-106h-294v-188h345v-110h-466z"/>
<glyph glyph-name="Igrave" horiz-adv-x="268" unicode="Ì" d="M126 735l-192 97l74 84l165 -125zM74 0v696h122v-696h-122z"/>
<glyph glyph-name="Iacute" horiz-adv-x="268" unicode="Í" d="M73 791l165 125l74 -84l-192 -97zM74 0v696h122v-696h-122z"/>
<glyph glyph-name="Icircumflex" horiz-adv-x="268" unicode="Î" d="M136 815l-147 -82l-38 48l149 124h76l147 -123l-40 -49zM74 0v696h122v-696h-122z"/>
<glyph glyph-name="Idieresis" horiz-adv-x="268" unicode="Ï" d="M-25 753v109h119v-109h-119zM175 753v109h118v-109h-118zM74 0v696h122v-696h-122z"/>
<glyph glyph-name="Eth" horiz-adv-x="638" unicode="Ð" d="M194 391h97v-85h-97v-196h119q44 0 74 12.5t48 35t26 54.5t8 71v130q0 93 -41 133t-117 40h-117v-195zM6 391h67v305h253q78 0 141 -30t96 -99q19 -38 23 -90t4 -117q0 -73 -4 -127t-21 -95q-17 -39 -43.5 -65.5t-59.5 -42.5t-72 -23t-81 -7h-236v306h-67v85z"/>
<glyph glyph-name="Ntilde" horiz-adv-x="692" unicode="Ñ" d="M274 876q19 0 37.5 -7.5t35.5 -16.5t32.5 -16.5t27.5 -7.5q17 0 32 11t32 36l60 -35q-24 -52 -52 -75.5t-62 -23.5q-19 0 -37.5 7t-36 16t-34 16t-30.5 7q-17 0 -33 -9.5t-36 -35.5l-57 33q23 48 53 74.5t68 26.5zM509 0l-215 324l-97 159l-3 -1v-482h-121v696h112 l195 -296l118 -188l2 2v482h121v-696h-112z"/>
<glyph glyph-name="Ograve" horiz-adv-x="610" unicode="Ò" d="M333 735l-192 97l74 84l165 -125zM304 587q-35 0 -60.5 -12t-42.5 -32.5t-25.5 -46.5t-8.5 -53v-187q0 -29 8.5 -55.5t25.5 -47.5t42.5 -33.5t60.5 -12.5q32 0 57.5 11.5t43 31.5t27 47t9.5 59v187q0 30 -9.5 56t-27 45.5t-43 31t-57.5 11.5zM304 701q60 0 108 -20 t82 -55t52 -83.5t18 -105.5v-178q0 -61 -18.5 -110t-52.5 -83.5t-82 -53t-107 -18.5q-65 0 -114 21.5t-81 58t-48 84.5t-16 101v178q0 52 16 100t48 84.5t81 58t114 21.5z"/>
<glyph glyph-name="Oacute" horiz-adv-x="610" unicode="Ó" d="M243 791l165 125l74 -84l-192 -97zM304 587q-35 0 -60.5 -12t-42.5 -32.5t-25.5 -46.5t-8.5 -53v-187q0 -29 8.5 -55.5t25.5 -47.5t42.5 -33.5t60.5 -12.5q32 0 57.5 11.5t43 31.5t27 47t9.5 59v187q0 30 -9.5 56t-27 45.5t-43 31t-57.5 11.5zM304 701q60 0 108 -20 t82 -55t52 -83.5t18 -105.5v-178q0 -61 -18.5 -110t-52.5 -83.5t-82 -53t-107 -18.5q-65 0 -114 21.5t-81 58t-48 84.5t-16 101v178q0 52 16 100t48 84.5t81 58t114 21.5z"/>
<glyph glyph-name="Ocircumflex" horiz-adv-x="610" unicode="Ô" d="M304 815l-147 -82l-38 48l149 124h76l147 -123l-40 -49zM304 587q-35 0 -60.5 -12t-42.5 -32.5t-25.5 -46.5t-8.5 -53v-187q0 -29 8.5 -55.5t25.5 -47.5t42.5 -33.5t60.5 -12.5q32 0 57.5 11.5t43 31.5t27 47t9.5 59v187q0 30 -9.5 56t-27 45.5t-43 31t-57.5 11.5z M304 701q60 0 108 -20t82 -55t52 -83.5t18 -105.5v-178q0 -61 -18.5 -110t-52.5 -83.5t-82 -53t-107 -18.5q-65 0 -114 21.5t-81 58t-48 84.5t-16 101v178q0 52 16 100t48 84.5t81 58t114 21.5z"/>
<glyph glyph-name="Otilde" horiz-adv-x="610" unicode="Õ" d="M239 875q19 0 37.5 -7.5t35.5 -16.5t32.5 -16.5t27.5 -7.5q17 0 32 11t32 36l60 -35q-24 -52 -52 -75.5t-62 -23.5q-19 0 -37.5 7t-36 16t-34 16t-30.5 7q-17 0 -33 -9.5t-36 -35.5l-57 33q23 48 53 74.5t68 26.5zM304 587q-35 0 -60.5 -12t-42.5 -32.5t-25.5 -46.5 t-8.5 -53v-187q0 -29 8.5 -55.5t25.5 -47.5t42.5 -33.5t60.5 -12.5q32 0 57.5 11.5t43 31.5t27 47t9.5 59v187q0 30 -9.5 56t-27 45.5t-43 31t-57.5 11.5zM304 701q60 0 108 -20t82 -55t52 -83.5t18 -105.5v-178q0 -61 -18.5 -110t-52.5 -83.5t-82 -53t-107 -18.5 q-65 0 -114 21.5t-81 58t-48 84.5t-16 101v178q0 52 16 100t48 84.5t81 58t114 21.5z"/>
<glyph glyph-name="Odieresis" horiz-adv-x="610" unicode="Ö" d="M145 757v111h121v-111h-121zM343 757v111h120v-111h-120zM304 587q-35 0 -60.5 -12t-42.5 -32.5t-25.5 -46.5t-8.5 -53v-187q0 -29 8.5 -55.5t25.5 -47.5t42.5 -33.5t60.5 -12.5q32 0 57.5 11.5t43 31.5t27 47t9.5 59v187q0 30 -9.5 56t-27 45.5t-43 31t-57.5 11.5z M304 701q60 0 108 -20t82 -55t52 -83.5t18 -105.5v-178q0 -61 -18.5 -110t-52.5 -83.5t-82 -53t-107 -18.5q-65 0 -114 21.5t-81 58t-48 84.5t-16 101v178q0 52 16 100t48 84.5t81 58t114 21.5z"/>
<glyph glyph-name="multiply" d="M268 221l-161 -161l-67 66l161 161l-164 165l64 63l164 -164l159 160l67 -67l-160 -159l165 -165l-63 -64z" unicode="×"/>
<glyph glyph-name="Oslash" horiz-adv-x="610" unicode="Ø" d="M304 587q-35 0 -60.5 -12t-42.5 -32.5t-25.5 -46.5t-8.5 -53v-187q0 -23 4 -40l232 330q-17 19 -42 30t-57 11zM441 443q0 26 -7 47l-236 -334q17 -22 43 -35.5t63 -13.5q32 0 57.5 11.5t43 31.5t27 47t9.5 59v187zM304 701q51 0 94 -15t75 -41l41 57l47 -34l-47 -66 q24 -34 37 -75.5t13 -89.5v-178q0 -61 -18.5 -110t-52.5 -83.5t-82 -53t-107 -18.5q-57 0 -101.5 16.5t-76.5 45.5l-42 -60l-45 33l50 71q-23 34 -33.5 74t-10.5 85v178q0 52 16 100t48 84.5t81 58t114 21.5z"/>
<glyph glyph-name="Ugrave" horiz-adv-x="638" unicode="Ù" d="M328 735l-192 97l74 84l165 -125zM579 247q0 -57 -19.5 -103.5t-54 -79.5t-82.5 -51t-104 -18q-59 0 -107 19.5t-82 54t-52 81.5t-18 102v444h120v-435q0 -32 9.5 -60t27.5 -48.5t44 -32.5t59 -12q62 0 99.5 38t37.5 110v440h122v-449z"/>
<glyph glyph-name="Uacute" horiz-adv-x="638" unicode="Ú" d="M244 791l165 125l74 -84l-192 -97zM579 247q0 -57 -19.5 -103.5t-54 -79.5t-82.5 -51t-104 -18q-59 0 -107 19.5t-82 54t-52 81.5t-18 102v444h120v-435q0 -32 9.5 -60t27.5 -48.5t44 -32.5t59 -12q62 0 99.5 38t37.5 110v440h122v-449z"/>
<glyph glyph-name="Ucircumflex" horiz-adv-x="638" unicode="Û" d="M318 815l-147 -82l-38 48l149 124h76l147 -123l-40 -49zM579 247q0 -57 -19.5 -103.5t-54 -79.5t-82.5 -51t-104 -18q-59 0 -107 19.5t-82 54t-52 81.5t-18 102v444h120v-435q0 -32 9.5 -60t27.5 -48.5t44 -32.5t59 -12q62 0 99.5 38t37.5 110v440h122v-449z"/>
<glyph glyph-name="Udieresis" horiz-adv-x="638" unicode="Ü" d="M162 757v111h121v-111h-121zM360 757v111h120v-111h-120zM579 247q0 -57 -19.5 -103.5t-54 -79.5t-82.5 -51t-104 -18q-59 0 -107 19.5t-82 54t-52 81.5t-18 102v444h120v-435q0 -32 9.5 -60t27.5 -48.5t44 -32.5t59 -12q62 0 99.5 38t37.5 110v440h122v-449z"/>
<glyph glyph-name="Yacute" horiz-adv-x="557" unicode="Ý" d="M211 791l165 125l74 -84l-192 -97zM553 696q-54 -103 -108 -205t-109 -205v-286h-115v286q-55 103 -108.5 205t-108.5 205h129l84 -172q16 -33 31 -66.5t30 -67.5h2l62 137l83 169h128z"/>
<glyph glyph-name="Thorn" horiz-adv-x="591" unicode="Þ" d="M458 355q0 54 -31.5 79.5t-83.5 25.5h-149v-209h153q26 0 46.5 8.5t35 23t22 33t7.5 39.5zM581 352q0 -42 -16.5 -80t-46.5 -67t-72 -46.5t-93 -17.5h-159v-141h-121l-1 695h122v-125h145q49 0 93 -14t77 -41t52.5 -68t19.5 -95z"/>
<glyph glyph-name="germandbls" horiz-adv-x="542" unicode="ß" d="M493 236q0 -40 -9.5 -82t-34 -76.5t-65.5 -56.5t-104 -22h-34v94h29q45 0 72.5 39t27.5 101q0 19 -4 41.5t-14 41.5t-27.5 31.5t-43.5 12.5h-22v92h21q21 0 34.5 9.5t21.5 23t11 28t3 24.5q0 15 -5 31.5t-15.5 30.5t-27 23t-39.5 9q-26 0 -44 -9t-29 -23.5t-15.5 -32.5 t-4.5 -36v-530h-113v527q0 47 15 84.5t42 63t65 39t84 13.5q51 0 87.5 -16t60.5 -41.5t35.5 -57t11.5 -63.5q0 -17 -5 -37.5t-14.5 -39.5t-23.5 -34.5t-32 -24.5v-1q30 -9 50 -28t32.5 -44t17.5 -52t5 -52z"/>
<glyph glyph-name="agrave" horiz-adv-x="499" unicode="à" d="M247 544l-123 179l108 36l82 -186zM142 152q0 -11 4.5 -22t15 -19.5t27 -14t41.5 -5.5q19 0 37 3.5t32.5 11.5t24.5 21t12 33q1 6 1 15v32h-115q-43 0 -61.5 -16t-18.5 -39zM245 500q42 0 79 -7.5t65 -26.5t44.5 -50.5t16.5 -79.5v-336h-113v44l-2 1q-20 -26 -55.5 -38 t-73.5 -12q-79 0 -125 38.5t-46 110.5q0 30 11 57t32 47.5t52.5 32.5t72.5 12h134v36q0 14 -4.5 27t-15.5 22.5t-30 15.5t-48 6q-41 0 -69 -10.5t-49 -30.5l-60 76q36 36 84 50.5t100 14.5z"/>
<glyph glyph-name="aacute" horiz-adv-x="499" unicode="á" d="M213 569l79 190l107 -34l-118 -181zM142 152q0 -11 4.5 -22t15 -19.5t27 -14t41.5 -5.5q19 0 37 3.5t32.5 11.5t24.5 21t12 33q1 6 1 15v32h-115q-43 0 -61.5 -16t-18.5 -39zM245 500q42 0 79 -7.5t65 -26.5t44.5 -50.5t16.5 -79.5v-336h-113v44l-2 1q-20 -26 -55.5 -38 t-73.5 -12q-79 0 -125 38.5t-46 110.5q0 30 11 57t32 47.5t52.5 32.5t72.5 12h134v36q0 14 -4.5 27t-15.5 22.5t-30 15.5t-48 6q-41 0 -69 -10.5t-49 -30.5l-60 76q36 36 84 50.5t100 14.5z"/>
<glyph glyph-name="acircumflex" horiz-adv-x="499" unicode="â" d="M142 152q0 -11 4.5 -22t15 -19.5t27 -14t41.5 -5.5q19 0 37 3.5t32.5 11.5t24.5 21t12 33q1 6 1 15v32h-115q-43 0 -61.5 -16t-18.5 -39zM248 642q-9 -6 -28.5 -21t-41 -31.5t-41.5 -31.5t-29 -21l-46 43l149 154h78l146 -153l-48 -44zM245 500q42 0 79 -7.5t65 -26.5 t44.5 -50.5t16.5 -79.5v-336h-113v44l-2 1q-20 -26 -55.5 -38t-73.5 -12q-79 0 -125 38.5t-46 110.5q0 30 11 57t32 47.5t52.5 32.5t72.5 12h134v36q0 14 -4.5 27t-15.5 22.5t-30 15.5t-48 6q-41 0 -69 -10.5t-49 -30.5l-60 76q36 36 84 50.5t100 14.5z"/>
<glyph glyph-name="atilde" horiz-adv-x="499" unicode="ã" d="M142 152q0 -11 4.5 -22t15 -19.5t27 -14t41.5 -5.5q19 0 37 3.5t32.5 11.5t24.5 21t12 33q1 6 1 15v32h-115q-43 0 -61.5 -16t-18.5 -39zM187 705q19 0 37.5 -7.5t35.5 -16.5t32.5 -16.5t27.5 -7.5q17 0 32 11t32 36l60 -35q-24 -52 -52 -75.5t-62 -23.5q-19 0 -37.5 7 t-36 16t-34 16t-30.5 7q-17 0 -33 -9.5t-36 -35.5l-57 33q23 48 53 74.5t68 26.5zM245 500q42 0 79 -7.5t65 -26.5t44.5 -50.5t16.5 -79.5v-336h-113v44l-2 1q-20 -26 -55.5 -38t-73.5 -12q-79 0 -125 38.5t-46 110.5q0 30 11 57t32 47.5t52.5 32.5t72.5 12h134v36 q0 14 -4.5 27t-15.5 22.5t-30 15.5t-48 6q-41 0 -69 -10.5t-49 -30.5l-60 76q36 36 84 50.5t100 14.5z"/>
<glyph glyph-name="adieresis" horiz-adv-x="499" unicode="ä" d="M293 583v109h118v-109h-118zM93 583v109h119v-109h-119zM142 152q0 -11 4.5 -22t15 -19.5t27 -14t41.5 -5.5q19 0 37 3.5t32.5 11.5t24.5 21t12 33q1 6 1 15v32h-115q-43 0 -61.5 -16t-18.5 -39zM245 500q42 0 79 -7.5t65 -26.5t44.5 -50.5t16.5 -79.5v-336h-113v44l-2 1 q-20 -26 -55.5 -38t-73.5 -12q-79 0 -125 38.5t-46 110.5q0 30 11 57t32 47.5t52.5 32.5t72.5 12h134v36q0 14 -4.5 27t-15.5 22.5t-30 15.5t-48 6q-41 0 -69 -10.5t-49 -30.5l-60 76q36 36 84 50.5t100 14.5z"/>
<glyph glyph-name="aring" horiz-adv-x="499" unicode="å" d="M308 643q0 20 -13.5 33t-33.5 13t-34 -13t-14 -33q0 -19 14 -32.5t34 -13.5t33.5 13.5t13.5 32.5zM142 152q0 -11 4.5 -22t15 -19.5t27 -14t41.5 -5.5q19 0 37 3.5t32.5 11.5t24.5 21t12 33q1 6 1 15v32h-115q-43 0 -61.5 -16t-18.5 -39zM149 643q0 22 9 42t24 34.5 t35.5 23t43.5 8.5t43 -8.5t35 -23t24 -34.5t9 -42t-9 -41.5t-24 -34t-35 -23t-43 -8.5t-43.5 8.5t-35.5 23t-24 34t-9 41.5zM245 500q42 0 79 -7.5t65 -26.5t44.5 -50.5t16.5 -79.5v-336h-113v44l-2 1q-20 -26 -55.5 -38t-73.5 -12q-79 0 -125 38.5t-46 110.5q0 30 11 57 t32 47.5t52.5 32.5t72.5 12h134v36q0 14 -4.5 27t-15.5 22.5t-30 15.5t-48 6q-41 0 -69 -10.5t-49 -30.5l-60 76q36 36 84 50.5t100 14.5z"/>
<glyph glyph-name="ae" horiz-adv-x="816" unicode="æ" d="M657 295q-3 51 -30.5 77t-66.5 26q-40 0 -67 -26.5t-32 -76.5h196zM147 152q0 -11 4.5 -22t15 -19.5t27 -14t41.5 -5.5q51 0 79 21.5t28 72.5v23h-115q-43 0 -61.5 -16.5t-18.5 -39.5zM459 215q1 -21 5 -37.5t12 -30.5q30 -50 97 -50q22 0 51 10t56 35l70 -78 q-41 -38 -87.5 -53.5t-92.5 -15.5q-47 0 -94 15t-81 56q-26 -32 -71 -51.5t-108 -19.5q-79 0 -127.5 38.5t-48.5 110.5q0 30 11 57t32 47.5t52.5 32.5t72.5 12h134v36q0 14 -5 27.5t-16.5 24t-30.5 16.5t-48 6q-44 0 -72.5 -11.5t-47.5 -31.5l-58 73q33 38 80.5 52.5 t98.5 14.5q23 0 47.5 -2.5t47.5 -8.5t43 -17t35 -29q29 31 66.5 44t74.5 13q54 0 95 -19.5t68 -53t40.5 -79.5t13.5 -99v-34h-315z"/>
<glyph glyph-name="ccedilla" horiz-adv-x="447" unicode="ç" d="M430 67q-35 -34 -78 -53t-94 -20l-9 -31q27 -2 46 -11t30.5 -21.5t16.5 -27t5 -27.5q0 -15 -7 -31t-21 -29t-35.5 -21t-50.5 -8q-26 0 -51.5 5.5t-48.5 18.5l21 52q23 -11 40 -13.5t32 -2.5q17 0 30.5 7t13.5 26q0 17 -12.5 24.5t-30.5 7.5q-7 0 -17 -2l-30 20l22 69 q-36 7 -68 25.5t-55.5 49t-37 73.5t-13.5 100q0 67 19.5 115t51.5 79t74 45t86 14q99 0 169 -70l-73 -79q-44 46 -94 46q-57 0 -87 -36t-30 -114q0 -77 29.5 -113t86.5 -36q25 0 50 13t46 34z"/>
<glyph glyph-name="egrave" horiz-adv-x="507" unicode="è" d="M249 544l-123 179l108 36l82 -186zM252 398q-39 0 -65 -27t-31 -76h190q-3 51 -29.5 77t-64.5 26zM154 215q0 -23 6 -44.5t19 -38t33 -26.5t47 -10q22 0 55.5 10.5t61.5 36.5q18 -20 33 -39.5t33 -39.5q-42 -38 -91 -54t-96 -16q-39 0 -78 11t-70 39.5t-50.5 77 t-19.5 124.5q0 72 19.5 120.5t50.5 78.5t69.5 43t76.5 13q50 0 89.5 -17t67 -47.5t42 -74.5t14.5 -98v-49h-312z"/>
<glyph glyph-name="eacute" horiz-adv-x="507" unicode="é" d="M198 569l79 190l107 -34l-118 -181zM252 398q-39 0 -65 -27t-31 -76h190q-3 51 -29.5 77t-64.5 26zM154 215q0 -23 6 -44.5t19 -38t33 -26.5t47 -10q22 0 55.5 10.5t61.5 36.5q18 -20 33 -39.5t33 -39.5q-42 -38 -91 -54t-96 -16q-39 0 -78 11t-70 39.5t-50.5 77 t-19.5 124.5q0 72 19.5 120.5t50.5 78.5t69.5 43t76.5 13q50 0 89.5 -17t67 -47.5t42 -74.5t14.5 -98v-49h-312z"/>
<glyph glyph-name="ecircumflex" horiz-adv-x="507" unicode="ê" d="M258 642q-9 -6 -28.5 -21t-41 -31.5t-41.5 -31.5t-29 -21l-46 43l149 154h78l146 -153l-48 -44zM252 398q-39 0 -65 -27t-31 -76h190q-3 51 -29.5 77t-64.5 26zM154 215q0 -23 6 -44.5t19 -38t33 -26.5t47 -10q22 0 55.5 10.5t61.5 36.5q18 -20 33 -39.5t33 -39.5 q-42 -38 -91 -54t-96 -16q-39 0 -78 11t-70 39.5t-50.5 77t-19.5 124.5q0 72 19.5 120.5t50.5 78.5t69.5 43t76.5 13q50 0 89.5 -17t67 -47.5t42 -74.5t14.5 -98v-49h-312z"/>
<glyph glyph-name="edieresis" horiz-adv-x="507" unicode="ë" d="M97 583v109h119v-109h-119zM297 583v109h118v-109h-118zM252 398q-39 0 -65 -27t-31 -76h190q-3 51 -29.5 77t-64.5 26zM154 215q0 -23 6 -44.5t19 -38t33 -26.5t47 -10q22 0 55.5 10.5t61.5 36.5q18 -20 33 -39.5t33 -39.5q-42 -38 -91 -54t-96 -16q-39 0 -78 11 t-70 39.5t-50.5 77t-19.5 124.5q0 72 19.5 120.5t50.5 78.5t69.5 43t76.5 13q50 0 89.5 -17t67 -47.5t42 -74.5t14.5 -98v-49h-312z"/>
<glyph glyph-name="igrave" horiz-adv-x="235" unicode="ì" d="M92 544l-123 179l108 36l82 -186zM60 0v495h115v-495h-115z"/>
<glyph glyph-name="iacute" horiz-adv-x="235" unicode="í" d="M72 569l79 190l107 -34l-118 -181zM60 0v495h115v-495h-115z"/>
<glyph glyph-name="icircumflex" horiz-adv-x="333" unicode="î" d="M166 642q-9 -6 -28.5 -21t-41 -31.5t-41.5 -31.5t-29 -21l-46 43l149 154h78l146 -153l-48 -44zM107 0v495h115v-495h-115z"/>
<glyph glyph-name="idieresis" horiz-adv-x="278" unicode="ï" d="M-20 583v109h119v-109h-119zM180 583v109h118v-109h-118zM82 0v495h115v-495h-115z"/>
<glyph glyph-name="eth" horiz-adv-x="514" unicode="ð" d="M248 373q-29 0 -50 -13.5t-34 -37.5q-6 -12 -10.5 -34.5t-5.5 -66.5q0 -20 3 -38t10 -33q25 -54 85 -54q26 0 47 11.5t34 32.5q14 20 17.5 47t3.5 55q0 24 -3 39.5t-7 26.5q-11 32 -34.5 48.5t-55.5 16.5zM246 476q16 0 34 -4.5t35 -12.5t31.5 -19.5t23.5 -26.5h2 q1 0 2 1q-1 35 -9 76t-28 66q-14 -11 -27.5 -21.5t-27.5 -21.5l-33 44l51 40q-20 18 -50.5 31.5t-81.5 21.5l17 89q129 -11 197 -79l69 55l35 -41l-65 -54q42 -59 52 -137.5t10 -171.5q0 -73 -16 -136.5t-54 -108.5q-29 -34 -71.5 -53.5t-102.5 -19.5q-57 0 -100.5 23 t-67.5 58q-19 29 -28 65.5t-10 79.5v18q0 33 6.5 69t22.5 66q25 48 70 76t114 28z"/>
<glyph glyph-name="ntilde" horiz-adv-x="529" unicode="ñ" d="M183 705q19 0 37.5 -7.5t35.5 -16.5t32.5 -16.5t27.5 -7.5q17 0 32 11t32 36l60 -35q-24 -52 -52 -75.5t-62 -23.5q-19 0 -37.5 7t-36 16t-34 16t-30.5 7q-17 0 -33 -9.5t-36 -35.5l-57 33q23 48 53 74.5t68 26.5zM357 0v294q0 48 -21.5 74t-69.5 26q-41 0 -68 -26 t-27 -74v-294h-113v496h113v-52h2q24 27 59.5 41.5t69.5 14.5q76 0 122 -43.5t46 -131.5v-325h-113z"/>
<glyph glyph-name="ograve" horiz-adv-x="515" unicode="ò" d="M255 544l-123 179l108 36l82 -186zM260 399q-29 0 -52 -15t-35 -41q-9 -20 -12.5 -44t-4.5 -53q0 -29 3 -53t12 -42q11 -26 33 -40.5t51 -14.5q32 0 57 17.5t36 53.5q5 14 7 35t2 53q0 58 -13 87q-11 29 -33.5 43t-50.5 14zM264 501q56 0 100.5 -21.5t71.5 -61.5 q19 -29 27.5 -68.5t8.5 -84.5v-10q0 -57 -8.5 -97.5t-25.5 -70.5q-29 -47 -78 -70.5t-108 -23.5q-56 0 -100 19t-71 59q-39 58 -39 165v11q0 40 5.5 76t19.5 64q26 55 77.5 84.5t119.5 29.5z"/>
<glyph glyph-name="oacute" horiz-adv-x="515" unicode="ó" d="M217 569l79 190l107 -34l-118 -181zM260 399q-29 0 -52 -15t-35 -41q-9 -20 -12.5 -44t-4.5 -53q0 -29 3 -53t12 -42q11 -26 33 -40.5t51 -14.5q32 0 57 17.5t36 53.5q5 14 7 35t2 53q0 58 -13 87q-11 29 -33.5 43t-50.5 14zM264 501q56 0 100.5 -21.5t71.5 -61.5 q19 -29 27.5 -68.5t8.5 -84.5v-10q0 -57 -8.5 -97.5t-25.5 -70.5q-29 -47 -78 -70.5t-108 -23.5q-56 0 -100 19t-71 59q-39 58 -39 165v11q0 40 5.5 76t19.5 64q26 55 77.5 84.5t119.5 29.5z"/>
<glyph glyph-name="ocircumflex" horiz-adv-x="515" unicode="ô" d="M258 642q-9 -6 -28.5 -21t-41 -31.5t-41.5 -31.5t-29 -21l-46 43l149 154h78l146 -153l-48 -44zM260 399q-29 0 -52 -15t-35 -41q-9 -20 -12.5 -44t-4.5 -53q0 -29 3 -53t12 -42q11 -26 33 -40.5t51 -14.5q32 0 57 17.5t36 53.5q5 14 7 35t2 53q0 58 -13 87 q-11 29 -33.5 43t-50.5 14zM264 501q56 0 100.5 -21.5t71.5 -61.5q19 -29 27.5 -68.5t8.5 -84.5v-10q0 -57 -8.5 -97.5t-25.5 -70.5q-29 -47 -78 -70.5t-108 -23.5q-56 0 -100 19t-71 59q-39 58 -39 165v11q0 40 5.5 76t19.5 64q26 55 77.5 84.5t119.5 29.5z"/>
<glyph glyph-name="otilde" horiz-adv-x="515" unicode="õ" d="M194 705q19 0 37.5 -7.5t35.5 -16.5t32.5 -16.5t27.5 -7.5q17 0 32 11t32 36l60 -35q-24 -52 -52 -75.5t-62 -23.5q-19 0 -37.5 7t-36 16t-34 16t-30.5 7q-17 0 -33 -9.5t-36 -35.5l-57 33q23 48 53 74.5t68 26.5zM260 399q-29 0 -52 -15t-35 -41q-9 -20 -12.5 -44 t-4.5 -53q0 -29 3 -53t12 -42q11 -26 33 -40.5t51 -14.5q32 0 57 17.5t36 53.5q5 14 7 35t2 53q0 58 -13 87q-11 29 -33.5 43t-50.5 14zM264 501q56 0 100.5 -21.5t71.5 -61.5q19 -29 27.5 -68.5t8.5 -84.5v-10q0 -57 -8.5 -97.5t-25.5 -70.5q-29 -47 -78 -70.5t-108 -23.5 q-56 0 -100 19t-71 59q-39 58 -39 165v11q0 40 5.5 76t19.5 64q26 55 77.5 84.5t119.5 29.5z"/>
<glyph glyph-name="odieresis" horiz-adv-x="515" unicode="ö" d="M97 583v109h119v-109h-119zM297 583v109h118v-109h-118zM260 399q-29 0 -52 -15t-35 -41q-9 -20 -12.5 -44t-4.5 -53q0 -29 3 -53t12 -42q11 -26 33 -40.5t51 -14.5q32 0 57 17.5t36 53.5q5 14 7 35t2 53q0 58 -13 87q-11 29 -33.5 43t-50.5 14zM264 501 q56 0 100.5 -21.5t71.5 -61.5q19 -29 27.5 -68.5t8.5 -84.5v-10q0 -57 -8.5 -97.5t-25.5 -70.5q-29 -47 -78 -70.5t-108 -23.5q-56 0 -100 19t-71 59q-39 58 -39 165v11q0 40 5.5 76t19.5 64q26 55 77.5 84.5t119.5 29.5z"/>
<glyph glyph-name="divide" d="M338 98q0 -29 -21.5 -49.5t-51.5 -20.5q-31 0 -52.5 20.5t-21.5 49.5t21.5 49.5t52.5 20.5q30 0 51.5 -20.5t21.5 -49.5zM23 251v90h483v-90h-483zM338 489q0 -29 -21.5 -49.5t-51.5 -20.5q-31 0 -52.5 20.5t-21.5 49.5t21.5 50t52.5 21q30 0 51.5 -21t21.5 -50z" unicode="÷"/>
<glyph glyph-name="oslash" horiz-adv-x="515" unicode="ø" d="M357 255q0 42 -8 72l-161 -204q27 -27 67 -27q32 0 57 17.5t36 53.5q5 14 7 35t2 53zM260 399q-29 0 -52 -15t-35 -41q-9 -20 -12.5 -44t-4.5 -53q0 -24 1.5 -44t7.5 -37l162 206q-13 14 -30 21t-37 7zM264 501q79 0 133 -42l42 54l36 -28l-46 -58q3 -3 7 -9 q19 -29 27.5 -68.5t8.5 -84.5v-10q0 -57 -8.5 -97.5t-25.5 -70.5q-29 -47 -78 -70.5t-108 -23.5q-40 0 -74.5 10t-60.5 30l-39 -49l-34 27l42 53q-4 4 -5 7q-39 58 -39 165v11q0 40 5.5 76t19.5 64q26 55 77.5 84.5t119.5 29.5z"/>
<glyph glyph-name="ugrave" horiz-adv-x="533" unicode="ù" d="M255 544l-123 179l108 36l82 -186zM171 495v-295q0 -51 21 -76t71 -25q40 0 67.5 26.5t27.5 74.5v295h113v-495h-113v49h-3q-23 -28 -58 -41.5t-68 -13.5q-77 0 -123.5 43t-46.5 133v325h112z"/>
<glyph glyph-name="uacute" horiz-adv-x="533" unicode="ú" d="M215 569l79 190l107 -34l-118 -181zM171 495v-295q0 -51 21 -76t71 -25q40 0 67.5 26.5t27.5 74.5v295h113v-495h-113v49h-3q-23 -28 -58 -41.5t-68 -13.5q-77 0 -123.5 43t-46.5 133v325h112z"/>
<glyph glyph-name="ucircumflex" horiz-adv-x="533" unicode="û" d="M263 642q-9 -6 -28.5 -21t-41 -31.5t-41.5 -31.5t-29 -21l-46 43l149 154h78l146 -153l-48 -44zM171 495v-295q0 -51 21 -76t71 -25q40 0 67.5 26.5t27.5 74.5v295h113v-495h-113v49h-3q-23 -28 -58 -41.5t-68 -13.5q-77 0 -123.5 43t-46.5 133v325h112z"/>
<glyph glyph-name="udieresis" horiz-adv-x="533" unicode="ü" d="M98 583v109h119v-109h-119zM298 583v109h118v-109h-118zM171 495v-295q0 -51 21 -76t71 -25q40 0 67.5 26.5t27.5 74.5v295h113v-495h-113v49h-3q-23 -28 -58 -41.5t-68 -13.5q-77 0 -123.5 43t-46.5 133v325h112z"/>
<glyph glyph-name="yacute" horiz-adv-x="470" unicode="ý" d="M196 569l79 190l107 -34l-118 -181zM252 -100q-21 -57 -60 -78.5t-84 -21.5h-42v95h31q22 0 37 15.5t23 36.5l25 78l-182 470h122l64 -182l49 -156h4l49 154l63 184h119z"/>
<glyph glyph-name="thorn" horiz-adv-x="524" unicode="þ" d="M172 246q0 -23 3 -49t12.5 -47.5t28 -35.5t49.5 -14t49.5 13.5t28.5 34.5t12.5 47t2.5 51q0 24 -2.5 50t-12 48t-28 36t-50.5 14t-50.5 -14.5t-28 -36.5t-12 -48t-2.5 -49zM172 712v-261l3 -1q25 28 54.5 39t61.5 11q59 0 95 -24t56 -61t26.5 -82.5t6.5 -88.5t-8 -87.5 t-29.5 -80.5t-59 -59t-97.5 -23t-107 47h-2v-241h-112v912h112z"/>
<glyph glyph-name="OE" horiz-adv-x="847" unicode="Œ" d="M299 107q31 0 56 11v458q-27 11 -56 11q-40 0 -66.5 -15t-42 -39t-22 -54t-6.5 -60v-163q0 -72 34 -110.5t103 -38.5zM362 0q-30 -6 -63 -6q-75 0 -125 20t-79.5 54t-41.5 79.5t-12 96.5v193q0 52 16 100t48 84.5t80.5 58t113.5 21.5q15 0 28.5 -1.5t27.5 -3.5h466v-110 h-345v-183h294v-105h-294v-189h345v-109h-459z"/>
<glyph glyph-name="oe" horiz-adv-x="835" unicode="œ" d="M669 295q-3 51 -30 77.5t-66 26.5t-66.5 -27t-31.5 -77h194zM255 399q-30 0 -53 -15t-35 -41q-9 -20 -12 -44.5t-3 -53.5t3 -52.5t12 -42.5q12 -26 33.5 -40t52.5 -14q32 0 57.5 17.5t36.5 53.5q5 14 6.5 34t1.5 46q0 62 -14 95q-12 29 -35 43t-51 14zM258 500 q49 0 91 -18.5t67 -57.5v-1q29 44 71.5 60.5t84.5 16.5q50 0 90 -17t68 -47.5t43 -74t15 -97.5v-49h-316q2 -58 30.5 -88.5t79.5 -30.5q22 0 53.5 10.5t58.5 35.5l70 -78q-41 -38 -89 -54t-94 -16q-47 0 -92 17.5t-76 61.5q-27 -41 -71 -60t-92 -19q-56 0 -100 19t-70 58 q-22 32 -31.5 74t-9.5 94q0 43 5 80t19 67q25 55 76 84.5t119 29.5z"/>
<glyph glyph-name="Scaron" horiz-adv-x="569" unicode="Š" d="M441 908l41 -49l-147 -124h-76l-150 125l39 48l147 -82zM458 537q-44 29 -89 40.5t-83 11.5q-64 0 -91 -25.5t-27 -62.5q0 -22 9.5 -36.5t30.5 -25t53 -18t77 -15.5q38 -7 75 -18.5t66 -34t46.5 -58t17.5 -89.5q0 -51 -21 -90.5t-57 -66.5t-83.5 -41t-100.5 -14 q-69 0 -141.5 20.5t-134.5 75.5l73 94q45 -42 98 -59.5t111 -17.5t93.5 24t35.5 71q0 42 -31.5 63.5t-95.5 31.5q-45 6 -88.5 16.5t-77.5 32t-54.5 57.5t-20.5 94q0 52 20 90.5t53 64t75.5 38t87.5 12.5q67 0 125.5 -15t108.5 -50z"/>
<glyph glyph-name="scaron" horiz-adv-x="463" unicode="š" d="M377 734l48 -44l-146 -153h-78l-149 154l46 43q9 -6 29 -21t41.5 -31.5t41 -31.5t28.5 -21zM433 151q0 -37 -16 -66t-43.5 -49.5t-64 -31t-78.5 -10.5q-55 0 -109.5 15t-105.5 60l61 81q35 -32 74.5 -45.5t84.5 -13.5q36 0 61 15t25 42q0 26 -21 38.5t-67 17.5 q-33 4 -66.5 10t-60.5 21t-44 41t-17 69q0 38 15 67t40 48.5t58.5 29.5t71.5 10q57 0 103 -12.5t87 -43.5l-54 -86q-35 23 -69.5 33t-64.5 10q-40 0 -60 -15.5t-20 -37.5q0 -25 28 -36t90 -18q30 -3 59.5 -11.5t52 -24.5t36.5 -42t14 -65z"/>
<glyph glyph-name="Ydieresis" horiz-adv-x="557" unicode="Ÿ" d="M319 757v111h120v-111h-120zM121 757v111h121v-111h-121zM553 696q-54 -103 -108 -205t-109 -205v-286h-115v286q-55 103 -108.5 205t-108.5 205h129l84 -172q16 -33 31 -66.5t30 -67.5h2l62 137l83 169h128z"/>
<glyph glyph-name="circumflex" horiz-adv-x="504" unicode="ˆ" d="M253 642q-9 -6 -28.5 -21t-41 -31.5t-41.5 -31.5t-29 -21l-46 43l149 154h78l146 -153l-48 -44z"/>
<glyph glyph-name="tilde" horiz-adv-x="504" unicode="˜" d="M189 705q19 0 37.5 -7.5t35.5 -16.5t32.5 -16.5t27.5 -7.5q17 0 32 11t32 36l60 -35q-24 -52 -52 -75.5t-62 -23.5q-19 0 -37.5 7t-36 16t-34 16t-30.5 7q-17 0 -33 -9.5t-36 -35.5l-57 33q23 48 53 74.5t68 26.5z"/>
<glyph glyph-name="Alpha" horiz-adv-x="629" unicode="Α" d="M361 398l-46 143h-3l-45 -140l-47 -144h187zM498 0l-55 154h-258l-56 -154h-127l263 696h98l263 -696h-128z"/>
<glyph glyph-name="Beta" horiz-adv-x="618" unicode="Β" d="M459 207q0 19 -6.5 36.5t-20 31t-34.5 22t-49 8.5h-155v-195h155q28 0 49 8t34.5 21.5t20 31t6.5 36.5zM443 499q0 38 -26 63.5t-82 25.5h-141v-181h141q56 0 82 27t26 65zM582 200q0 -45 -16.5 -82t-44.5 -63.5t-65 -40.5t-78 -14h-305v696h278q53 0 94 -14t68.5 -39 t41.5 -60t14 -77q0 -20 -4.5 -40t-15.5 -38.5t-29.5 -35.5t-46.5 -29v-4q27 -8 47.5 -25t34 -39t20.5 -46.5t7 -48.5z"/>
<glyph glyph-name="Gamma" horiz-adv-x="545" unicode="Γ" d="M194 586v-586h-121v696h466v-110h-345z"/>
<glyph glyph-name="Epsilon" horiz-adv-x="564" unicode="Ε" d="M73 0v696h466v-110h-345v-182h294v-106h-294v-188h345v-110h-466z"/>
<glyph glyph-name="Zeta" horiz-adv-x="527" unicode="Ζ" d="M30 0v104l323 485h-310v107h454v-99l-323 -486h323v-111h-467z"/>
<glyph glyph-name="Eta" horiz-adv-x="655" unicode="Η" d="M462 0v298h-268v-298h-121v696h121v-292h268v292h120v-696h-120z"/>
<glyph glyph-name="Theta" horiz-adv-x="602" unicode="Θ" d="M407 301h-213v100h213v-100zM300 586q-35 0 -60.5 -12t-42.5 -32.5t-25.5 -46.5t-8.5 -53v-185q0 -29 8.5 -55.5t25.5 -47.5t42.5 -33.5t60.5 -12.5q32 0 57.5 11.5t43 31.5t27 47t9.5 59v185q0 30 -9.5 56t-27 45.5t-43 31t-57.5 11.5zM300 701q60 0 108 -20t82 -55 t52 -83.5t18 -105.5v-178q0 -61 -18.5 -110t-52.5 -83.5t-82 -53t-107 -18.5q-65 0 -114 21.5t-81 58t-48 84.5t-16 101v178q0 52 16 100t48 84.5t81 58t114 21.5z"/>
<glyph glyph-name="Iota" horiz-adv-x="268" unicode="Ι" d="M74 0v696h122v-696h-122z"/>
<glyph glyph-name="Kappa" horiz-adv-x="638" unicode="Κ" d="M502 0l-195 324l-113 -131v-193h-121v696h122v-337l2 -1l117 143l164 195h144l-235 -278l258 -418h-143z"/>
<glyph glyph-name="Lambda" horiz-adv-x="618" unicode="Λ" d="M493 0q-6 18 -16.5 47.5t-21 60t-19.5 56.5t-13 37t-16.5 45.5t-28.5 80.5t-34 98t-34 98h-3q-16 -46 -34 -97.5t-34 -97.5l-28 -80.5t-16 -45.5t-13 -37.5t-20 -57t-21.5 -60t-16.5 -47.5h-127l262 696h99l263 -696h-128z"/>
<glyph glyph-name="Mu" horiz-adv-x="765" unicode="Μ" d="M581 0v413h-3l-37 -89l-51 -112l-54 -114h-97l-40 85l-66 146l-36 85l-3 -3v-411h-121v696h113l91 -199q29 -63 55.5 -125t53.5 -125h4l56 133l51 117l89 199h116v-696h-121z"/>
<glyph glyph-name="Nu" horiz-adv-x="692" unicode="Ν" d="M509 0l-215 324l-97 159l-3 -1v-482h-121v696h112l195 -296l118 -188l2 2v482h121v-696h-112z"/>
<glyph glyph-name="Xi" horiz-adv-x="589" unicode="Ξ" d="M53 0v110h480v-110h-480zM107 298v106h371v-106h-371zM55 586v110h475v-110h-475z"/>
<glyph glyph-name="Omicron" horiz-adv-x="610" unicode="Ο" d="M304 587q-35 0 -60.5 -12t-42.5 -32.5t-25.5 -46.5t-8.5 -53v-187q0 -29 8.5 -55.5t25.5 -47.5t42.5 -33.5t60.5 -12.5q32 0 57.5 11.5t43 31.5t27 47t9.5 59v187q0 30 -9.5 56t-27 45.5t-43 31t-57.5 11.5zM304 701q60 0 108 -20t82 -55t52 -83.5t18 -105.5v-178 q0 -61 -18.5 -110t-52.5 -83.5t-82 -53t-107 -18.5q-65 0 -114 21.5t-81 58t-48 84.5t-16 101v178q0 52 16 100t48 84.5t81 58t114 21.5z"/>
<glyph glyph-name="Pi" horiz-adv-x="655" unicode="Π" d="M462 0v588h-268v-588h-121v696h509v-696h-120z"/>
<glyph glyph-name="Rho" horiz-adv-x="591" unicode="Ρ" d="M457 481q0 54 -32 79.5t-84 25.5h-147v-209h151q53 0 82.5 31t29.5 73zM581 478q0 -42 -16.5 -80t-46.5 -67t-72 -46.5t-93 -17.5h-159v-267h-121v696h271q49 0 92 -14t75.5 -41t51 -68t18.5 -95z"/>
<glyph glyph-name="Sigma" horiz-adv-x="527" unicode="Σ" d="M30 0v110l161 247l-161 235v104h454v-108h-309l159 -230l-159 -246h322v-112h-467z"/>
<glyph glyph-name="Tau" horiz-adv-x="521" unicode="Τ" d="M319 588v-588h-121v588h-193v108h508v-108h-194z"/>
<glyph glyph-name="Upsilon" horiz-adv-x="557" unicode="Υ" d="M553 696q-54 -103 -108 -205t-109 -205v-286h-115v286q-55 103 -108.5 205t-108.5 205h129l84 -172q16 -33 31 -66.5t30 -67.5h2l62 137l83 169h128z"/>
<glyph glyph-name="Phi" horiz-adv-x="758" unicode="Φ" d="M320 559q-43 -4 -73.5 -21t-50 -44.5t-28.5 -63t-9 -75.5q0 -83 39 -136.5t122 -61.5v402zM436 157q46 2 77.5 18t50.5 42.5t27.5 61.5t8.5 76q0 38 -8 74t-27.5 64.5t-51 46t-77.5 19.5v-402zM717 354q0 -61 -18.5 -113.5t-54 -92t-88 -63t-120.5 -25.5v-60h-116v60 q-69 5 -121 28.5t-87 62t-52.5 90t-17.5 113.5q0 61 17.5 115t52.5 94.5t87 65t121 27.5v40h116v-40q74 -5 127.5 -28.5t87.5 -63.5t50 -93.5t16 -116.5z"/>
<glyph glyph-name="Chi" horiz-adv-x="576" unicode="Χ" d="M439 0l-152 257l-151 -257h-136l225 356l-212 340h137l137 -240l138 240h136l-211 -340l225 -356h-136z"/>
<glyph glyph-name="Psi" horiz-adv-x="750" unicode="Ψ" d="M689 384q0 -53 -19.5 -96t-53.5 -74.5t-80.5 -50t-100.5 -22.5v-141h-121v141q-55 3 -101.5 22t-80.5 51.5t-53.5 77.5t-19.5 101v303h119v-295q0 -65 38.5 -104.5t97.5 -44.5v444h121v-444q58 4 97 39.5t39 99.5v305h118v-312z"/>
<glyph glyph-name="alpha" horiz-adv-x="519" unicode="α" d="M161 246q0 -25 2.5 -50.5t12 -46.5t28.5 -34.5t51 -13.5q31 0 49 14.5t27.5 36t12.5 47t3 47.5q0 23 -2.5 49t-12 48t-28 36.5t-49.5 14.5q-33 0 -51.5 -14t-28 -36t-12 -48t-2.5 -50zM45 240q0 45 7 91t27.5 83.5t57.5 61t97 23.5q32 0 60 -10.5t51 -38.5l2 1v44h113 v-495h-113v47l-2 1q-25 -27 -55.5 -40.5t-60.5 -13.5q-58 0 -94 22t-56 57t-27 79t-7 88z"/>
<glyph glyph-name="beta" horiz-adv-x="530" unicode="β" d="M365 248q0 19 -4 39t-14 36t-26.5 26.5t-43.5 10.5h-58v91h46q21 0 35 8.5t23 22t12.5 29t3.5 29.5q0 16 -5 32.5t-15 29t-25.5 20.5t-36.5 8q-24 0 -40.5 -9t-26 -23.5t-13.5 -32.5t-4 -36v-287q0 -24 2.5 -50t12.5 -47.5t29 -35.5t51 -14q31 0 50 14t29.5 36t14 49 t3.5 54zM484 230q0 -47 -9.5 -89.5t-31.5 -75t-57.5 -51.5t-88.5 -19q-32 0 -64.5 11.5t-57.5 39.5h-2v-198h-112v640q0 53 10.5 97t34 75t61 48t90.5 17t90 -16.5t60 -42t33.5 -56t10.5 -57.5q0 -17 -3.5 -36.5t-11.5 -38.5t-21.5 -35t-33.5 -27v-1q36 -9 56.5 -30 t31 -47.5t13 -55t2.5 -52.5z"/>
<glyph glyph-name="gamma" horiz-adv-x="481" unicode="γ" d="M477 495q-47 -120 -91 -236t-86 -241v-218h-112v196q-27 94 -56.5 182t-62.5 173q-6 16 -10.5 25.5t-10 15t-12.5 7t-18 1.5h-7l-8 92q38 11 65 11q22 0 37.5 -6.5t27 -19.5t20.5 -31.5t18 -43.5q18 -51 36.5 -106.5t35.5 -111.5h5q27 84 52 160t54 151h123z"/>
<glyph glyph-name="delta" horiz-adv-x="504" unicode="δ" d="M251 405q-33 -5 -55 -23.5t-32 -43.5q-9 -21 -11.5 -46.5t-3.5 -50.5q0 -29 3.5 -52t11.5 -41q12 -26 31.5 -39t53.5 -13q33 0 57.5 17.5t35.5 53.5q5 16 6.5 35.5t1.5 50.5q0 27 -3.5 47t-9.5 34q-23 56 -86 71zM264 726q45 0 85.5 -8.5t86.5 -33.5l-44 -92 q-36 20 -64.5 27t-55.5 7q-36 0 -51.5 -13t-15.5 -31q0 -23 24 -41.5t61 -36.5q39 -21 76.5 -44.5t60.5 -57.5q22 -33 29.5 -73.5t7.5 -88.5q0 -50 -9 -86t-26 -65q-29 -49 -77.5 -72t-105.5 -23q-56 0 -99.5 18.5t-69.5 57.5q-22 31 -31 70t-9 90q0 42 5 76t20 63 q12 27 36 52.5t56 38.5q-33 20 -50.5 51.5t-17.5 63.5q0 36 13.5 64t37.5 47.5t56.5 29.5t70.5 10z"/>
<glyph glyph-name="epsilon" horiz-adv-x="458" unicode="ε" d="M441 69q-41 -38 -92.5 -56t-105.5 -18q-44 0 -80.5 10t-62.5 29.5t-40.5 47.5t-14.5 64q0 12 4 27.5t12.5 31t22.5 29.5t34 22v2q-18 6 -31 17t-20.5 24t-11 27t-3.5 27q0 30 12.5 56.5t37 47t60.5 32t83 11.5q54 0 101.5 -15.5t85.5 -53.5l-69 -80q-24 24 -54.5 34 t-58.5 10q-33 0 -58 -14t-25 -39q0 -19 14 -32t54 -13h72v-88h-74q-35 0 -54.5 -15t-19.5 -39q0 -22 22.5 -39t70.5 -17q28 0 60.5 11t55.5 37z"/>
<glyph glyph-name="zeta" horiz-adv-x="418" unicode="ζ" d="M156 218q0 -25 8 -42.5t22 -30.5t34.5 -23.5t44.5 -20.5q49 -18 82 -32t52.5 -28.5t27.5 -31t8 -39.5q0 -20 -9 -42t-22.5 -44t-29.5 -43.5t-31 -39.5l-81 45q4 6 12.5 18.5t17 27t14.5 28.5t6 22q0 13 -11.5 21.5t-34.5 17.5q-46 17 -87.5 35t-73 43.5t-50 61.5 t-18.5 90q0 44 21 96.5t57.5 106.5t86 105t107.5 93h-235v99h391v-88q-65 -48 -121 -101t-98 -106.5t-66 -104.5t-24 -93z"/>
<glyph glyph-name="eta" horiz-adv-x="538" unicode="η" d="M362 0v294q0 48 -21.5 74t-69.5 26q-41 0 -68.5 -26t-27.5 -74v-294h-113v496h113v-52h3q24 27 59.5 41.5t69.5 14.5q76 0 121.5 -43.5t45.5 -131.5v-325h-112z"/>
<glyph glyph-name="theta" horiz-adv-x="519" unicode="θ" d="M263 632q-29 0 -51 -15t-35 -42q-4 -8 -8 -19t-7.5 -28t-6 -43t-3.5 -64h215q0 38 -2.5 64t-6 43t-7 27.5t-5.5 17.5q-9 29 -31.5 44t-51.5 15zM350 165q1 6 4.5 18.5t6.5 32t4.5 43.5t1.5 48v25h-215v-27q0 -26 1.5 -51.5t4.5 -47.5t7.5 -35.5l7.5 -22.5q11 -26 32 -41 t54 -15q71 0 91 73zM267 729q57 0 98.5 -22t66.5 -63q9 -14 17 -35.5t14.5 -53.5t10 -77.5t3.5 -108.5q0 -60 -3.5 -105t-9 -78.5t-13.5 -56.5t-17 -39q-26 -46 -73 -71.5t-105 -25.5q-56 0 -99 20t-69 60q-11 16 -19.5 40t-14.5 59t-8.5 82t-2.5 109q0 100 11 161.5 t25 89.5q25 55 73 85t115 30z"/>
<glyph glyph-name="iota" horiz-adv-x="263" unicode="ι" d="M227 -4q-9 -1 -18 -1h-17q-42 0 -67 11t-38.5 29t-17.5 42t-4 51v367h112v-360q0 -26 9 -36t43 -10z"/>
<glyph glyph-name="kappa" horiz-adv-x="520" unicode="κ" d="M389 0q-37 56 -71.5 111t-71.5 111q-17 -19 -35 -37.5t-35 -38.5v-146h-112v495h112v-204h3l96 108l87 96h137l-179 -193q51 -76 101.5 -151.5t101.5 -150.5h-134z"/>
<glyph glyph-name="lambda" horiz-adv-x="479" unicode="λ" d="M483 -1q-16 -4 -30.5 -5t-24.5 -1q-39 0 -61 15.5t-33 44.5q-5 10 -8.5 20.5t-6.5 21.5q-10 32 -20 65t-21 65q-8 28 -16.5 55.5t-17.5 55.5h-4l-43 -128q-17 -51 -35 -103.5t-38 -104.5h-118l183 487l-27 91q-8 28 -21 40.5t-46 12.5h-10.5t-11.5 -1l-6 93q36 9 64 9 q51 0 79.5 -23t45.5 -66q5 -11 8 -21.5t7 -21.5q40 -120 78 -239t78 -239q8 -23 17.5 -31t35.5 -8z"/>
<glyph glyph-name="nu" horiz-adv-x="477" unicode="ν" d="M284 0h-90l-190 495h121l58 -169l55 -169h2l54 168l58 170h121z"/>
<glyph glyph-name="xi" horiz-adv-x="426" unicode="ξ" d="M402 586q-35 23 -66 31t-60 8q-27 0 -47.5 -8.5t-33.5 -22t-19.5 -30.5t-6.5 -34q0 -22 9.5 -40t25.5 -31t38 -20t48 -7h92v-93h-118q-26 0 -47 -10t-36 -27t-23 -38.5t-8 -45.5q0 -46 27.5 -70t68.5 -39q57 -21 94 -35t58.5 -28t30 -31t8.5 -43q0 -18 -8 -39.5 t-20.5 -44t-28.5 -45t-32 -42.5q-20 12 -40.5 23.5t-40.5 22.5q3 6 10.5 18.5t16 26.5t14.5 27t6 21q0 25 -45 41q-39 14 -81.5 28.5t-78 38.5t-58 62.5t-22.5 100.5q0 18 5.5 42t18.5 48.5t35 47.5t54 39q-27 11 -44.5 29t-28 38t-14.5 40.5t-4 35.5q0 43 17 79.5t46.5 62 t69.5 40t85 14.5q42 0 90.5 -10t95.5 -43q-14 -22 -27 -43.5t-26 -44.5z"/>
<glyph glyph-name="omicron" horiz-adv-x="515" unicode="ο" d="M260 399q-29 0 -52 -15t-35 -41q-9 -20 -12.5 -44t-4.5 -53q0 -29 3 -53t12 -42q11 -26 33 -40.5t51 -14.5q32 0 57 17.5t36 53.5q5 14 7 35t2 53q0 58 -13 87q-11 29 -33.5 43t-50.5 14zM264 501q56 0 100.5 -21.5t71.5 -61.5q19 -29 27.5 -68.5t8.5 -84.5v-10 q0 -57 -8.5 -97.5t-25.5 -70.5q-29 -47 -78 -70.5t-108 -23.5q-56 0 -100 19t-71 59q-39 58 -39 165v11q0 40 5.5 76t19.5 64q26 55 77.5 84.5t119.5 29.5z"/>
<glyph glyph-name="pi" horiz-adv-x="536" unicode="π" d="M360 0v398h-187v-398h-113v495h413v-495h-113z"/>
<glyph glyph-name="rho" horiz-adv-x="521" unicode="ρ" d="M266 399q-29 0 -50.5 -15t-34.5 -41q-9 -20 -12 -44t-4 -53q0 -29 3 -53t11 -42q12 -26 32.5 -40.5t49.5 -14.5q32 0 57 17.5t36 53.5q9 28 9 80v8q0 55 -13 87q-11 29 -34 43t-50 14zM277 -5q-33 0 -59.5 10.5t-48.5 33.5l-3 -2v-237h-113v447q1 40 6.5 78.5t15.5 60.5 q26 55 76.5 85t117.5 30q56 0 100.5 -22t71.5 -62q21 -32 29.5 -75t8.5 -97q0 -97 -36 -157q-29 -49 -72.5 -71t-93.5 -22z"/>
<glyph glyph-name="sigma1" horiz-adv-x="456" unicode="ς" d="M395 350q-26 24 -53.5 34t-50.5 10q-58 0 -92 -37t-34 -112q0 -48 18 -80.5t67 -52.5q46 -18 80.5 -33t57.5 -30.5t35 -33.5t12 -42q0 -19 -7 -39.5t-19 -41t-27 -41t-31 -39.5l-81 45q5 7 12.5 18.5t14 24t11 24t4.5 18.5q0 26 -46 42q-58 20 -98.5 41.5t-66.5 50.5 t-38 68t-12 95q0 67 19.5 116.5t51.5 82t73.5 48t86.5 15.5q47 0 94.5 -15.5t88.5 -53.5q-18 -20 -35 -41t-35 -41z"/>
<glyph glyph-name="sigma" horiz-adv-x="520" unicode="σ" d="M254 393q-26 0 -45.5 -12t-32.5 -34q-21 -36 -23 -101q0 -69 24 -109t75 -40q34 0 57.5 19t33.5 56q4 14 6.5 32t2.5 41q0 36 -5.5 61.5t-16.5 42.5q-26 44 -76 44zM410 404q14 -15 25 -30.5t18 -34t10.5 -41.5t3.5 -54q0 -33 -6 -69.5t-17 -62.5q-26 -60 -77.5 -89 t-117.5 -29q-56 0 -97.5 18.5t-67.5 55.5q-23 33 -34 77.5t-11 100.5q1 33 5.5 62.5t14.5 54.5q23 63 73.5 97.5t124.5 34.5h241v-91h-88z"/>
<glyph glyph-name="tau" horiz-adv-x="372" unicode="τ" d="M235 404v-248q0 -26 10 -40.5t36 -14.5h41v-101h-72q-56 0 -92 32.5t-36 92.5v279h-107v91h339v-91h-119z"/>
<glyph glyph-name="upsilon" horiz-adv-x="540" unicode="υ" d="M477 178q0 -41 -15.5 -75t-43 -58t-65.5 -37t-83 -13q-44 0 -82 13.5t-65.5 37.5t-43 57.5t-15.5 74.5v317h113v-294q0 -48 26.5 -74t67.5 -26q40 0 66.5 26t26.5 74v294h113v-317z"/>
<glyph glyph-name="phi" horiz-adv-x="643" unicode="φ" d="M377 96q37 0 65 18.5t39 53.5q5 17 6.5 37.5t1.5 42.5q0 37 -3.5 60.5t-9.5 37.5q-14 29 -42 40.5t-57 11.5v-302zM264 -5q-59 2 -106.5 20t-76.5 59q-23 31 -32 72t-9 101q0 30 2.5 59t11 55.5t23.5 50t40 43.5q14 11 28.5 19.5t34.5 14.5l37 -99q-38 -15 -52 -49 q-8 -17 -10 -39t-2 -56q0 -23 2.5 -43.5t8.5 -38.5q11 -31 37 -50t63 -19v405h115q23 0 49 -4t51.5 -14t48.5 -27t39 -43q22 -35 28.5 -75.5t6.5 -89.5q0 -57 -8.5 -96t-28.5 -68q-28 -41 -76 -62.5t-112 -25.5v-194h-113v194z"/>
<glyph glyph-name="chi" horiz-adv-x="501" unicode="χ" d="M354 0l-104 167l-103 -167h-136l180 253l-172 242h135l96 -160l97 160h135l-172 -243l180 -252h-136z"/>
<glyph glyph-name="psi" horiz-adv-x="669" unicode="ψ" d="M609 193q0 -49 -19.5 -85t-50.5 -60.5t-70 -37.5t-79 -15v-196h-112v197q-41 2 -79.5 15t-69 37.5t-49 60t-18.5 82.5v304h113v-284q0 -28 8.5 -48.5t23 -34t33 -21t38.5 -8.5v416h112v-416q21 1 40 8t33.5 20.5t23.5 34t9 49.5v284h113v-302z"/>
<glyph glyph-name="afii10023" horiz-adv-x="564" unicode="Ё" d="M147 757v111h121v-111h-121zM345 757v111h120v-111h-120zM73 0v696h466v-110h-345v-182h294v-106h-294v-188h345v-110h-466z"/>
<glyph glyph-name="afii10051" horiz-adv-x="743" unicode="Ђ" d="M319 414q15 13 33.5 24t39.5 18t43 11t42 4q44 0 84 -14t70.5 -43t48.5 -73.5t18 -105.5q0 -55 -14.5 -102t-45 -81.5t-78.5 -54.5t-115 -20h-15t-15 1v97h4q70 0 113 37t43 118q0 63 -34.5 98.5t-90.5 35.5q-33 0 -68 -14.5t-66 -46.5v-303h-121v591h-191v105h565v-105 h-253v-177h3z"/>
<glyph glyph-name="afii10052" horiz-adv-x="545" unicode="Ѓ" d="M204 791l165 125l74 -84l-192 -97zM194 586v-586h-121v696h466v-110h-345z"/>
<glyph glyph-name="afii10053" horiz-adv-x="572" unicode="Є" d="M551 156q-26 -76 -89.5 -119t-154.5 -43q-65 0 -114 20.5t-81 56t-48 84t-16 104.5v178q0 52 16 100t48 84.5t81 58t114 21.5q92 0 154.5 -44.5t88.5 -117.5l-114 -45q-13 41 -45.5 66.5t-83.5 25.5q-35 0 -60.5 -12t-42.5 -32.5t-25.5 -46.5t-8.5 -53v-38h215v-106h-215 v-41q0 -29 8.5 -55.5t25.5 -47.5t42.5 -33.5t60.5 -12.5q50 0 83 26.5t46 69.5z"/>
<glyph glyph-name="afii10054" horiz-adv-x="569" unicode="Ѕ" d="M458 537q-44 29 -89 40.5t-83 11.5q-64 0 -91 -25.5t-27 -62.5q0 -22 9.5 -36.5t30.5 -25t53 -18t77 -15.5q38 -7 75 -18.5t66 -34t46.5 -58t17.5 -89.5q0 -51 -21 -90.5t-57 -66.5t-83.5 -41t-100.5 -14q-69 0 -141.5 20.5t-134.5 75.5l73 94q45 -42 98 -59.5t111 -17.5 t93.5 24t35.5 71q0 42 -31.5 63.5t-95.5 31.5q-45 6 -88.5 16.5t-77.5 32t-54.5 57.5t-20.5 94q0 52 20 90.5t53 64t75.5 38t87.5 12.5q67 0 125.5 -15t108.5 -50z"/>
<glyph glyph-name="afii10055" horiz-adv-x="268" unicode="І" d="M74 0v696h122v-696h-122z"/>
<glyph glyph-name="afii10056" horiz-adv-x="268" unicode="Ї" d="M-31 762v109h119v-109h-119zM169 762v109h118v-109h-118zM74 0v696h122v-696h-122z"/>
<glyph glyph-name="afii10057" horiz-adv-x="489" unicode="Ј" d="M424 224q0 -65 -19 -109t-50.5 -70.5t-73 -38t-86.5 -11.5q-57 0 -105 22t-85 64l86 79q22 -23 49 -38.5t52 -15.5q21 0 40.5 4.5t35.5 18t25.5 37.5t9.5 62v468h121v-472z"/>
<glyph glyph-name="afii10058" horiz-adv-x="949" unicode="Љ" d="M805 209q0 18 -6.5 35t-20 30.5t-34.5 21.5t-50 8h-155v-194h153q54 0 83.5 27.5t29.5 71.5zM142 696h397v-284h162q56 0 98.5 -17t71.5 -44.5t43.5 -63.5t14.5 -74q0 -52 -18 -91.5t-50 -66.5t-75.5 -41t-93.5 -14h-274v588h-161v-248q0 -81 -11.5 -144.5t-38 -108 t-69 -70t-105.5 -30.5l-22 100q37 10 62 26.5t40.5 45t22 72t6.5 107.5v358z"/>
<glyph glyph-name="afii10059" horiz-adv-x="941" unicode="Њ" d="M799 208q0 36 -28 65t-86 29h-152v-192h152q54 0 84 26t30 72zM412 0v302h-222v-302h-121v696h121v-284h222v284h121v-284h156q56 0 99.5 -16t73.5 -43t45.5 -63.5t15.5 -77.5q0 -53 -18 -92.5t-49.5 -66t-75 -40t-93.5 -13.5h-275z"/>
<glyph glyph-name="afii10060" horiz-adv-x="749" unicode="Ћ" d="M568 0v250q0 26 -5 47.5t-18 36.5t-35 23.5t-56 8.5q-32 0 -69 -15.5t-69 -44.5v-306h-121v591h-190v105h565v-105h-254v-176h3q34 27 78.5 42.5t89.5 15.5q91 0 146.5 -47.5t55.5 -137.5v-288h-121z"/>
<glyph glyph-name="afii10061" horiz-adv-x="615" unicode="Ќ" d="M207 791l165 125l74 -84l-192 -97zM71 0v696h121v-291h91q16 0 34 3t35.5 13.5t32 31t25.5 54.5l60 187h118l-63 -203q-15 -51 -40.5 -85.5t-58.5 -45.5q44 -14 68 -50t39 -87l67 -223h-126l-57 193q-11 34 -25 55.5t-30.5 33t-35 15.5t-38.5 4h-96v-301h-121z"/>
<glyph glyph-name="afii10062" horiz-adv-x="569" unicode="Ў" d="M293 701q-42 0 -70 15t-45.5 37t-25.5 47.5t-9 46.5h87q0 -10 4.5 -21.5t12.5 -21.5t19.5 -16.5t26.5 -6.5q16 0 28 6.5t20 16.5t12 21.5t4 21.5h86q-2 -21 -10 -46.5t-25 -47.5t-45 -37t-70 -15zM109 90h47q24 0 39.5 10t27.5 36l7 18l-211 542h132l75 -220l64 -180h5 l58 178l74 222h128l-202 -542q-18 -48 -36 -80.5t-39 -52t-46 -27.5t-58 -8h-65v104z"/>
<glyph glyph-name="afii10145" horiz-adv-x="655" unicode="Џ" d="M582 696v-696h-195v-171h-117v171h-197v696h121v-586h268v586h120z"/>
<glyph glyph-name="afii10017" horiz-adv-x="629" unicode="А" d="M361 398l-46 143h-3l-45 -140l-47 -144h187zM498 0l-55 154h-258l-56 -154h-127l263 696h98l263 -696h-128z"/>
<glyph glyph-name="afii10018" horiz-adv-x="603" unicode="Б" d="M452 207q0 18 -6.5 35.5t-20.5 30.5t-35.5 21t-51.5 8h-153v-193h153q54 0 84 26.5t30 71.5zM64 0v696h441v-110h-320v-174h156q57 0 101 -16t73.5 -43t45 -63.5t15.5 -77.5q0 -53 -18 -92.5t-50 -66t-75 -40t-93 -13.5h-276z"/>
<glyph glyph-name="afii10019" horiz-adv-x="618" unicode="В" d="M459 207q0 19 -6.5 36.5t-20 31t-34.5 22t-49 8.5h-155v-195h155q28 0 49 8t34.5 21.5t20 31t6.5 36.5zM443 499q0 38 -26 63.5t-82 25.5h-141v-181h141q56 0 82 27t26 65zM582 200q0 -45 -16.5 -82t-44.5 -63.5t-65 -40.5t-78 -14h-305v696h278q53 0 94 -14t68.5 -39 t41.5 -60t14 -77q0 -20 -4.5 -40t-15.5 -38.5t-29.5 -35.5t-46.5 -29v-4q27 -8 47.5 -25t34 -39t20.5 -46.5t7 -48.5z"/>
<glyph glyph-name="afii10020" horiz-adv-x="545" unicode="Г" d="M194 586v-586h-121v696h466v-110h-345z"/>
<glyph glyph-name="afii10021" horiz-adv-x="732" unicode="Д" d="M283 588q-2 -48 -4 -93.5t-4 -93.5q-2 -46 -4.5 -89t-7.5 -80.5t-14.5 -69.5t-25.5 -55h293v481h-233zM20 97q16 3 32 6.5t33 7.5q24 18 38 40t22.5 55.5t12.5 81t7 116.5l12 292h459q0 -148 0.5 -294.5t0.5 -294.5h67v-262h-107v155h-469v-155h-108v252z"/>
<glyph glyph-name="afii10022" horiz-adv-x="564" unicode="Е" d="M73 0v696h466v-110h-345v-182h294v-106h-294v-188h345v-110h-466z"/>
<glyph glyph-name="afii10024" horiz-adv-x="953" unicode="Ж" d="M416 301h-84q-20 0 -38.5 -4t-35 -15.5t-30.5 -33t-25 -55.5l-57 -193h-126l67 223q15 51 39 87t68 50q-33 11 -59 45.5t-40 85.5l-63 203h118l60 -187q10 -35 25 -55t32 -30.5t35 -13.5t35 -3h79v292h121v-292h79q16 0 34.5 3t35.5 13.5t32 30.5t25 55l60 187h118 l-63 -203q-14 -51 -40 -85.5t-59 -45.5q44 -14 68 -50t39 -87l67 -223h-126l-57 193q-11 34 -25 55.5t-30.5 33t-35 15.5t-38.5 4h-84v-301h-121v301z"/>
<glyph glyph-name="afii10025" horiz-adv-x="576" unicode="З" d="M275 -5q-94 0 -162.5 41t-96.5 115l112 50q7 -20 22 -37t34.5 -30t43 -20.5t48.5 -7.5q58 0 96 28t38 78q0 48 -30.5 75t-83.5 27h-81v103h83q47 0 76.5 24.5t29.5 63.5q0 41 -33 62t-80 21q-51 0 -89.5 -24.5t-57.5 -63.5l-106 53q30 68 94 108.5t159 40.5 q109 0 172 -48.5t63 -135.5q0 -18 -5 -39t-16.5 -41t-31 -38t-48.5 -30q0 -2 0.5 -2.5t0.5 -2.5q33 -10 54 -29t33 -41.5t16.5 -46t4.5 -42.5q0 -50 -20 -89t-55 -66t-82.5 -41.5t-101.5 -14.5z"/>
<glyph glyph-name="afii10026" horiz-adv-x="692" unicode="И" d="M73 0v696h120v-492q1 -1 3 -1l162 249l162 244h101v-696h-121v472h-3l-138 -213q-44 -65 -87 -129.5t-88 -129.5h-111z"/>
<glyph glyph-name="afii10027" horiz-adv-x="692" unicode="Й" d="M340 715q-42 0 -70 15t-45.5 37t-25.5 47.5t-9 46.5h87q0 -10 4.5 -21.5t12.5 -21.5t19.5 -16.5t26.5 -6.5q16 0 28 6.5t20 16.5t12 21.5t4 21.5h86q-2 -21 -10 -46.5t-25 -47.5t-45 -37t-70 -15zM73 0v696h120v-492q1 -1 3 -1l162 249l162 244h101v-696h-121v472h-3 l-138 -213q-44 -65 -87 -129.5t-88 -129.5h-111z"/>
<glyph glyph-name="afii10028" horiz-adv-x="615" unicode="К" d="M71 0v696h121v-291h91q16 0 34 3t35.5 13.5t32 31t25.5 54.5l60 187h118l-63 -203q-15 -51 -40.5 -85.5t-58.5 -45.5q44 -14 68 -50t39 -87l67 -223h-126l-57 193q-11 34 -25 55.5t-30.5 33t-35 15.5t-38.5 4h-96v-301h-121z"/>
<glyph glyph-name="afii10029" horiz-adv-x="668" unicode="Л" d="M468 588h-210v-194q0 -101 -9.5 -174.5t-34.5 -123.5t-68.5 -76.5t-111.5 -32.5q-5 25 -10.5 49.5t-11.5 49.5q37 10 62.5 27t41 45.5t22 72t6.5 106.5v359h444v-696h-120v588z"/>
<glyph glyph-name="afii10030" horiz-adv-x="765" unicode="М" d="M581 0v413h-3l-37 -89l-51 -112l-54 -114h-97l-40 85l-66 146l-36 85l-3 -3v-411h-121v696h113l91 -199q29 -63 55.5 -125t53.5 -125h4l56 133l51 117l89 199h116v-696h-121z"/>
<glyph glyph-name="afii10031" horiz-adv-x="655" unicode="Н" d="M462 0v298h-268v-298h-121v696h121v-292h268v292h120v-696h-120z"/>
<glyph glyph-name="afii10032" horiz-adv-x="610" unicode="О" d="M304 587q-35 0 -60.5 -12t-42.5 -32.5t-25.5 -46.5t-8.5 -53v-187q0 -29 8.5 -55.5t25.5 -47.5t42.5 -33.5t60.5 -12.5q32 0 57.5 11.5t43 31.5t27 47t9.5 59v187q0 30 -9.5 56t-27 45.5t-43 31t-57.5 11.5zM304 701q60 0 108 -20t82 -55t52 -83.5t18 -105.5v-178 q0 -61 -18.5 -110t-52.5 -83.5t-82 -53t-107 -18.5q-65 0 -114 21.5t-81 58t-48 84.5t-16 101v178q0 52 16 100t48 84.5t81 58t114 21.5z"/>
<glyph glyph-name="afii10033" horiz-adv-x="655" unicode="П" d="M462 0v588h-268v-588h-121v696h509v-696h-120z"/>
<glyph glyph-name="afii10034" horiz-adv-x="591" unicode="Р" d="M457 481q0 54 -32 79.5t-84 25.5h-147v-209h151q53 0 82.5 31t29.5 73zM581 478q0 -42 -16.5 -80t-46.5 -67t-72 -46.5t-93 -17.5h-159v-267h-121v696h271q49 0 92 -14t75.5 -41t51 -68t18.5 -95z"/>
<glyph glyph-name="afii10035" horiz-adv-x="572" unicode="С" d="M551 156q-26 -76 -89.5 -119t-154.5 -43q-65 0 -114 20.5t-81 56t-48 84t-16 104.5v178q0 52 16 100t48 84.5t81 58t114 21.5q92 0 154.5 -44.5t88.5 -117.5l-114 -45q-13 41 -45.5 66.5t-83.5 25.5q-35 0 -60.5 -12t-42.5 -32.5t-25.5 -46.5t-8.5 -53v-185 q0 -29 8.5 -55.5t25.5 -47.5t42.5 -33.5t60.5 -12.5q50 0 83 26.5t46 69.5z"/>
<glyph glyph-name="afii10036" horiz-adv-x="521" unicode="Т" d="M319 588v-588h-121v588h-193v108h508v-108h-194z"/>
<glyph glyph-name="afii10037" horiz-adv-x="569" unicode="У" d="M109 90h47q24 0 39.5 10t27.5 36l7 18l-211 542h132l75 -220l64 -180h5l58 178l74 222h128l-202 -542q-18 -48 -36 -80.5t-39 -52t-46 -27.5t-58 -8h-65v104z"/>
<glyph glyph-name="afii10038" horiz-adv-x="758" unicode="Ф" d="M320 559q-43 -4 -73.5 -21t-50 -44.5t-28.5 -63t-9 -75.5q0 -83 39 -136.5t122 -61.5v402zM436 157q46 2 77.5 18t50.5 42.5t27.5 61.5t8.5 76q0 38 -8 74t-27.5 64.5t-51 46t-77.5 19.5v-402zM717 354q0 -61 -18.5 -113.5t-54 -92t-88 -63t-120.5 -25.5v-60h-116v60 q-69 5 -121 28.5t-87 62t-52.5 90t-17.5 113.5q0 61 17.5 115t52.5 94.5t87 65t121 27.5v40h116v-40q74 -5 127.5 -28.5t87.5 -63.5t50 -93.5t16 -116.5z"/>
<glyph glyph-name="afii10039" horiz-adv-x="576" unicode="Х" d="M439 0l-152 257l-151 -257h-136l225 356l-212 340h137l137 -240l138 240h136l-211 -340l225 -356h-136z"/>
<glyph glyph-name="afii10040" horiz-adv-x="688" unicode="Ц" d="M558 0h-485v696h121v-586h268v586h120v-588h83v-263h-107v155z"/>
<glyph glyph-name="afii10041" horiz-adv-x="629" unicode="Ч" d="M173 696v-205q0 -66 33 -97.5t93 -31.5q28 0 67 9.5t70 32.5v292h119v-696h-120v303h-1q-38 -23 -81 -32t-85 -9q-46 0 -85 13.5t-67.5 40t-44.5 67t-16 94.5v219h118z"/>
<glyph glyph-name="afii10042" horiz-adv-x="928" unicode="Ш" d="M858 696v-696h-788v696h121v-586h212v586h122v-586h213v586h120z"/>
<glyph glyph-name="afii10043" horiz-adv-x="963" unicode="Щ" d="M833 0h-764v696h121v-586h212v586h122v-586h213v586h121v-588h82v-263h-107v155z"/>
<glyph glyph-name="afii10044" horiz-adv-x="741" unicode="Ъ" d="M604 208q0 18 -7 35t-21 30t-35 21t-50 8h-153v-192h153q54 0 83.5 26t29.5 72zM217 0v586h-207v110h329v-284h156q56 0 99.5 -16t73.5 -43t45.5 -63.5t15.5 -77.5q0 -53 -18 -92.5t-50 -66t-75 -40t-93 -13.5h-276z"/>
<glyph glyph-name="afii10045" horiz-adv-x="841" unicode="Ы" d="M464 208q0 36 -28 65t-85 29h-153v-192h153q54 0 83.5 26t29.5 72zM651 0v696h121v-696h-121zM77 0v696h121v-284h157q56 0 99.5 -16t73 -43t45 -63.5t15.5 -77.5q0 -53 -18 -92.5t-49.5 -66t-75 -40t-93.5 -13.5h-275z"/>
<glyph glyph-name="afii10046" horiz-adv-x="597" unicode="Ь" d="M460 208q0 18 -7 35t-21 30t-35 21t-50 8h-153v-192h153q54 0 83.5 26t29.5 72zM584 212q0 -53 -18 -92.5t-49.5 -66t-75 -40t-93.5 -13.5h-275v696h121v-284h156q56 0 99.5 -16t73.5 -43t45.5 -63.5t15.5 -77.5z"/>
<glyph glyph-name="afii10047" horiz-adv-x="591" unicode="Э" d="M142 205q14 -43 46 -69.5t83 -26.5q37 0 63.5 12.5t43 33.5t24 47.5t7.5 55.5v47h-215v106h215v32q0 27 -6 52.5t-21 46t-40.5 33t-63.5 12.5q-48 0 -84 -25.5t-49 -66.5l-114 45q13 36 36.5 66t56 51.5t72 33t85.5 11.5q69 0 117 -21.5t77 -58t42 -84.5t13 -100v-178 q0 -56 -16 -104.5t-48.5 -84t-81 -56t-113.5 -20.5q-91 0 -154 43t-89 119z"/>
<glyph glyph-name="afii10048" horiz-adv-x="814" unicode="Ю" d="M521 587q-36 0 -60 -13t-39 -34t-21 -47t-6 -51v-186q0 -29 6 -55.5t20.5 -47.5t38.5 -33.5t60 -12.5q33 0 57 11.5t39 31.5t22 47t7 59v186q0 28 -6.5 54t-21.5 46t-38.5 32.5t-57.5 12.5zM521 701q64 0 110.5 -19.5t77 -55t45 -83.5t14.5 -105v-180q0 -60 -17 -109 t-49 -83.5t-78 -53t-104 -18.5q-66 0 -112.5 21.5t-76.5 58.5t-43.5 84.5t-13.5 100.5v39h-84v-298h-121v696h121v-292h84v32q0 52 14.5 100t45 85t77 58.5t110.5 21.5z"/>
<glyph glyph-name="afii10049" horiz-adv-x="632" unicode="Я" d="M185 487q0 -24 9 -41t25 -27.5t38 -15.5t47 -5h134v191h-141q-52 0 -82 -26.5t-30 -75.5zM560 696v-696h-122v294h-96q-20 0 -38.5 -5t-35.5 -18.5t-31.5 -36t-24.5 -56.5l-52 -178h-128l55 197q12 44 32 75t61 45q-33 9 -55.5 27t-37 41.5t-20.5 50.5t-6 53 q0 46 16 84.5t45 65.5t68.5 42t87.5 15h282z"/>
<glyph glyph-name="afii10065" horiz-adv-x="499" unicode="а" d="M142 152q0 -11 4.5 -22t15 -19.5t27 -14t41.5 -5.5q19 0 37 3.5t32.5 11.5t24.5 21t12 33q1 6 1 15v32h-115q-43 0 -61.5 -16t-18.5 -39zM245 500q42 0 79 -7.5t65 -26.5t44.5 -50.5t16.5 -79.5v-336h-113v44l-2 1q-20 -26 -55.5 -38t-73.5 -12q-79 0 -125 38.5 t-46 110.5q0 30 11 57t32 47.5t52.5 32.5t72.5 12h134v36q0 14 -4.5 27t-15.5 22.5t-30 15.5t-48 6q-41 0 -69 -10.5t-49 -30.5l-60 76q36 36 84 50.5t100 14.5z"/>
<glyph glyph-name="afii10066" horiz-adv-x="515" unicode="б" d="M283 480q53 0 88.5 -18t60.5 -54q22 -32 31.5 -73t9.5 -90q0 -102 -40 -164q-28 -45 -74 -66.5t-105 -21.5q-62 0 -101 17.5t-62 48.5q-26 33 -38 87.5t-12 144.5q2 68 6 108.5t7 55.5q16 81 61.5 136t131.5 87q29 11 70 24.5t96 33.5l34 -86q-48 -20 -76.5 -30 t-44.5 -16q-45 -17 -75 -32.5t-49 -35t-29 -45t-13 -62.5q1 0 2 -1q25 28 58.5 40t62.5 12zM259 379q-29 0 -48.5 -11.5t-31.5 -31.5t-17 -47t-5 -52q0 -30 4.5 -54t15.5 -42q12 -23 31.5 -34t49.5 -11t53 14.5t35 45.5q7 16 9.5 35.5t2.5 46.5q0 29 -4 52.5t-11 36.5 q-11 25 -30.5 38.5t-53.5 13.5z"/>
<glyph glyph-name="afii10067" horiz-adv-x="500" unicode="в" d="M349 346q0 23 -17 37.5t-55 14.5h-107v-105h107q42 0 57 16t15 37zM360 155q0 22 -16.5 39t-56.5 17h-117v-111h117q40 0 56.5 16.5t16.5 38.5zM475 150q0 -33 -13 -60.5t-35.5 -47.5t-53.5 -31t-67 -11h-250v495h233q88 0 131.5 -39.5t43.5 -99.5q0 -27 -14.5 -55 t-52.5 -45q40 -13 59 -44t19 -62z"/>
<glyph glyph-name="afii10068" horiz-adv-x="438" unicode="г" d="M169 398v-398h-113v495h380v-97h-267z"/>
<glyph glyph-name="afii10069" horiz-adv-x="589" unicode="д" d="M74 101q17 13 27.5 27t17.5 34.5t10.5 48.5t6.5 69l14 215h362v-396h57v-237h-102v138h-347v-138h-103v228zM245 399l-7 -113q-4 -62 -10.5 -110t-26.5 -78h199v301h-155z"/>
<glyph glyph-name="afii10070" horiz-adv-x="507" unicode="е" d="M252 398q-39 0 -65 -27t-31 -76h190q-3 51 -29.5 77t-64.5 26zM154 215q0 -23 6 -44.5t19 -38t33 -26.5t47 -10q22 0 55.5 10.5t61.5 36.5q18 -20 33 -39.5t33 -39.5q-42 -38 -91 -54t-96 -16q-39 0 -78 11t-70 39.5t-50.5 77t-19.5 124.5q0 72 19.5 120.5t50.5 78.5 t69.5 43t76.5 13q50 0 89.5 -17t67 -47.5t42 -74.5t14.5 -98v-49h-312z"/>
<glyph glyph-name="afii10072" horiz-adv-x="763" unicode="ж" d="M252 204q-27 0 -46.5 -17.5t-33.5 -59.5q-9 -32 -18.5 -63.5t-18.5 -63.5h-115q12 40 24.5 79.5t24.5 80.5q11 37 28 63.5t52 34.5q-28 8 -46 32.5t-29 60.5l-45 144h111l40 -130q7 -24 17.5 -38.5t23 -22t26 -9.5t26.5 -2h53v202h113v-202h51q29 0 55 18t42 68l36 116 h111l-45 -144q-11 -36 -29 -60.5t-46 -32.5q35 -8 52 -34.5t28 -63.5q12 -41 24.5 -80.5t24.5 -79.5h-115q-9 32 -18.5 63.5t-18.5 63.5q-16 48 -39 62.5t-54 14.5h-59v-204h-113v204h-74z"/>
<glyph glyph-name="afii10073" horiz-adv-x="457" unicode="з" d="M297 349q0 25 -21.5 38t-58.5 13q-15 0 -31.5 -2.5t-33 -7t-31.5 -12t-26 -17.5l-57 78q35 32 84.5 47.5t98.5 15.5q96 0 142 -38t46 -101q0 -12 -4 -26.5t-12.5 -29t-22.5 -27.5t-33 -22v-2q24 -9 40 -21.5t25 -27.5t12.5 -30t3.5 -28q0 -35 -14.5 -63t-40.5 -48.5 t-63 -31.5t-83 -11q-66 0 -115 15t-87 52l66 76q9 -9 23 -17t31.5 -14t37 -9.5t37.5 -3.5q45 0 70 18t25 45q0 30 -25.5 43t-56.5 13h-74v83h79q33 0 51 15.5t18 37.5z"/>
<glyph glyph-name="afii10074" horiz-adv-x="550" unicode="и" d="M57 0v495h111v-329h2q22 32 44 62.5t44 62.5q36 51 71.5 102t72.5 102h92v-495h-112v313h-2q-25 -39 -52 -74.5t-53 -73.5l-117 -165h-101z"/>
<glyph glyph-name="afii10075" horiz-adv-x="550" unicode="й" d="M57 0v495h111v-329h2q22 32 44 62.5t44 62.5q36 51 71.5 102t72.5 102h92v-495h-112v313h-2q-25 -39 -52 -74.5t-53 -73.5l-117 -165h-101zM286 564q-42 0 -70 15t-45.5 37t-25.5 47.5t-9 46.5h87q0 -10 4.5 -21.5t12.5 -21.5t19.5 -16.5t26.5 -6.5q16 0 28 6.5t20 16.5 t12 21.5t4 21.5h86q-2 -21 -10 -46.5t-25 -47.5t-45 -37t-70 -15z"/>
<glyph glyph-name="afii10076" horiz-adv-x="506" unicode="к" d="M54 0v494h113v-201h64q13 0 26 2t25.5 9.5t23 22t17.5 38.5l40 130h112l-45 -144q-11 -36 -29 -60.5t-46 -32.5q35 -8 52 -34.5t28 -63.5l49 -160h-116l-36 127q-16 48 -39.5 62t-54.5 14h-71v-203h-113z"/>
<glyph glyph-name="afii10077" horiz-adv-x="538" unicode="л" d="M219 397v-127q0 -136 -41.5 -204.5t-144.5 -75.5l-10 42l-10 42q31 9 51 20.5t32 33t16.5 56t4.5 87.5v224h359v-495h-113v397h-144z"/>
<glyph glyph-name="afii10078" horiz-adv-x="623" unicode="м" d="M456 0v270h-1q-17 -35 -34 -68t-34 -67l-35 -67h-81l-44 84q-16 29 -31 59t-29 60h-1v-271h-111v495h102q34 -63 53.5 -100.5t30.5 -58t15.5 -29.5l7.5 -15l48 -91q12 23 23 45.5t23 45.5q25 52 52 102t53 101h104v-495h-111z"/>
<glyph glyph-name="afii10079" horiz-adv-x="532" unicode="н" d="M365 0v205h-197v-205h-112v495h112v-201h197v201h111v-495h-111z"/>
<glyph glyph-name="afii10080" horiz-adv-x="515" unicode="о" d="M260 399q-29 0 -52 -15t-35 -41q-9 -20 -12.5 -44t-4.5 -53q0 -29 3 -53t12 -42q11 -26 33 -40.5t51 -14.5q32 0 57 17.5t36 53.5q5 14 7 35t2 53q0 58 -13 87q-11 29 -33.5 43t-50.5 14zM264 501q56 0 100.5 -21.5t71.5 -61.5q19 -29 27.5 -68.5t8.5 -84.5v-10 q0 -57 -8.5 -97.5t-25.5 -70.5q-29 -47 -78 -70.5t-108 -23.5q-56 0 -100 19t-71 59q-39 58 -39 165v11q0 40 5.5 76t19.5 64q26 55 77.5 84.5t119.5 29.5z"/>
<glyph glyph-name="afii10081" horiz-adv-x="536" unicode="п" d="M360 0v398h-187v-398h-113v495h413v-495h-113z"/>
<glyph glyph-name="afii10082" horiz-adv-x="516" unicode="р" d="M172 246q0 -23 2.5 -49t12 -47.5t28 -35.5t49.5 -14t50 13.5t28.5 34.5t12.5 47t3 51q0 24 -2 50t-11 48t-27.5 36t-51.5 14q-32 0 -50.5 -14.5t-28 -36.5t-12.5 -48t-3 -49zM172 495v-44l3 -1q25 28 57 39t64 11q58 0 93.5 -23.5t54.5 -60.5t25 -82t6 -88t-7.5 -87.5 t-28.5 -81t-58 -60t-97 -23.5q-31 0 -61 11.5t-49 35.5h-2v-241h-112v695h112z"/>
<glyph glyph-name="afii10083" horiz-adv-x="447" unicode="с" d="M430 67q-36 -35 -80 -54t-95 -19q-45 0 -86 14.5t-72.5 45t-50 78.5t-18.5 115t19.5 115t51.5 79t74 45t86 14q99 0 169 -70l-73 -79q-44 46 -94 46q-57 0 -87 -36t-30 -114q0 -77 29.5 -113t86.5 -36q25 0 50 13t46 34z"/>
<glyph glyph-name="afii10084" horiz-adv-x="431" unicode="т" d="M270 398v-398h-113v398h-150v97h414v-97h-151z"/>
<glyph glyph-name="afii10085" horiz-adv-x="470" unicode="у" d="M252 -100q-21 -57 -60 -78.5t-84 -21.5h-42v95h31q22 0 37 15.5t23 36.5l25 78l-182 470h122l64 -182l49 -156h4l49 154l63 184h119z"/>
<glyph glyph-name="afii10086" horiz-adv-x="649" unicode="ф" d="M379 93q33 0 62 20t40 55q5 16 7 34.5t2 44.5q0 61 -14 94q-11 28 -38 42t-59 15v-305zM267 398q-29 0 -55.5 -14.5t-38.5 -40.5q-9 -20 -12 -44t-4 -53q0 -29 3.5 -53t12.5 -42q12 -26 38.5 -42t55.5 -16v305zM379 501q28 0 55.5 -6t52 -17.5t44.5 -27.5t33 -35 q41 -62 41 -170q0 -98 -37 -156q-29 -47 -81 -71t-108 -26v-188h-111v188q-57 1 -106 21.5t-77 58.5q-23 32 -32.5 76t-9.5 99q1 40 7 75.5t19 63.5q12 25 33 46.5t47 36.5t56.5 23.5t61.5 8.5v226h112v-226z"/>
<glyph glyph-name="afii10087" horiz-adv-x="501" unicode="х" d="M354 0l-104 167l-103 -167h-136l180 253l-172 242h135l96 -160l97 160h135l-172 -243l180 -252h-136z"/>
<glyph glyph-name="afii10088" horiz-adv-x="571" unicode="ц" d="M478 101h73v-239h-102v138h-389v495h112v-394h195v394h111v-394z"/>
<glyph glyph-name="afii10089" horiz-adv-x="497" unicode="ч" d="M150 496v-142q0 -45 19 -64.5t63 -19.5q19 0 49.5 7t54.5 21v198h110v-496h-110v204h-1q-32 -17 -64 -24t-61 -7q-36 0 -67.5 8.5t-55 28t-37 50.5t-13.5 75v161h113z"/>
<glyph glyph-name="afii10090" horiz-adv-x="789" unicode="ш" d="M729 495v-495h-669v495h110v-393h169v393h110v-393h170v393h110z"/>
<glyph glyph-name="afii10091" horiz-adv-x="822" unicode="щ" d="M699 0h-639v495h110v-393h169v393h111v-393h169v393h110v-394h73v-239h-103v138z"/>
<glyph glyph-name="afii10092" horiz-adv-x="596" unicode="ъ" d="M468 162q0 22 -16 41.5t-57 19.5l-112 1v-123h112q37 0 55 17t18 44zM583 167q0 -35 -11 -65t-33.5 -53t-56 -36t-79.5 -13h-231v398h-160v97h272v-172h120q48 0 82 -13.5t55.5 -35t31.5 -49.5t10 -58z"/>
<glyph glyph-name="afii10093" horiz-adv-x="683" unicode="ы" d="M349 162q0 22 -16 41.5t-57 19.5l-112 1v-123h112q37 0 55 17t18 44zM515 0v495h111v-495h-111zM464 167q0 -35 -11 -65t-33.5 -53t-56 -36t-79.5 -13h-230v495h111v-172h120q48 0 82 -13.5t55.5 -35t31.5 -49.5t10 -58z"/>
<glyph glyph-name="afii10094" horiz-adv-x="480" unicode="ь" d="M349 162q0 22 -16.5 41.5t-57.5 19.5l-111 1v-123h111q37 0 55.5 17t18.5 44zM464 167q0 -35 -11 -65t-33.5 -53t-56.5 -36t-79 -13h-231v495h112v-172h119q48 0 82 -13.5t56 -35t32 -49.5t10 -58z"/>
<glyph glyph-name="afii10095" horiz-adv-x="464" unicode="э" d="M82 141q23 -20 48.5 -31.5t51.5 -11.5q54 0 86 28t37 84h-156v82h157q-3 50 -31 77t-79 27q-23 0 -51.5 -10.5t-50.5 -31.5l-63 80q34 33 78.5 49.5t94.5 16.5q46 0 86.5 -13t70 -42.5t46.5 -75.5t17 -112q0 -69 -19.5 -119t-52.5 -81.5t-75.5 -46.5t-88.5 -15 q-100 0 -169 63z"/>
<glyph glyph-name="afii10096" horiz-adv-x="685" unicode="ю" d="M436 400q-28 0 -48.5 -15t-32.5 -42q-7 -15 -11 -41.5t-4 -55.5t3.5 -54t10.5 -41q12 -26 31.5 -40t48.5 -14q31 0 53.5 17t33.5 53q8 30 8 81q0 31 -3 55.5t-10 40.5q-11 29 -32.5 42.5t-47.5 13.5zM438 502q54 0 97.5 -20.5t69.5 -61.5q20 -32 28.5 -76.5t8.5 -98.5 q0 -98 -34 -157q-28 -49 -75.5 -72t-101.5 -23t-96 20t-68 59q-16 23 -26 57.5t-12 76.5h-61v-206h-113v495h113v-202h61q2 26 7.5 50t14.5 44q25 55 74 85t113 30z"/>
<glyph glyph-name="afii10097" horiz-adv-x="513" unicode="я" d="M156 334q0 -30 20 -43t53 -13h113v121h-116q-28 0 -49 -16t-21 -49zM262 192q-29 -1 -51.5 -15t-33.5 -56l-31 -121h-118l36 128q8 29 22.5 52.5t42.5 33.5q-45 14 -64.5 47.5t-20.5 72.5q0 36 12 65.5t34 51t53 33t69 11.5h243v-495h-113v192h-80z"/>
<glyph glyph-name="afii10071" horiz-adv-x="507" unicode="ё" d="M94 590v109h119v-109h-119zM294 590v109h118v-109h-118zM252 398q-39 0 -65 -27t-31 -76h190q-3 51 -29.5 77t-64.5 26zM154 215q0 -23 6 -44.5t19 -38t33 -26.5t47 -10q22 0 55.5 10.5t61.5 36.5q18 -20 33 -39.5t33 -39.5q-42 -38 -91 -54t-96 -16q-39 0 -78 11 t-70 39.5t-50.5 77t-19.5 124.5q0 72 19.5 120.5t50.5 78.5t69.5 43t76.5 13q50 0 89.5 -17t67 -47.5t42 -74.5t14.5 -98v-49h-312z"/>
<glyph glyph-name="afii10099" horiz-adv-x="580" unicode="ђ" d="M195 441q28 27 61 40.5t68 13.5q97 0 151.5 -60t54.5 -189q0 -53 -13 -100.5t-41 -82.5t-72.5 -55.5t-106.5 -20.5q-8 0 -14 0.5t-14 1.5v99q5 -1 11 -1h11q34 0 58 11.5t38.5 32.5t21 49.5t6.5 62.5q0 30 -5.5 57t-19 48t-36.5 33t-58 12q-18 0 -37 -7t-34 -23 t-24.5 -40.5t-9.5 -59.5q0 -66 -0.5 -131.5t-0.5 -131.5h-112v565h-69v79h69v82h112v-82h208v-79h-207v-123z"/>
<glyph glyph-name="afii10100" horiz-adv-x="438" unicode="ѓ" d="M169 398v-398h-113v495h380v-97h-267zM177 569l79 190l107 -34l-118 -181z"/>
<glyph glyph-name="afii10101" horiz-adv-x="447" unicode="є" d="M427 58q-36 -32 -76.5 -47.5t-91.5 -15.5q-44 0 -86 13.5t-75 43.5t-53 77t-20 113q0 68 20 117t52.5 80.5t74.5 46t87 14.5q51 0 90.5 -16t75.5 -49l-64 -80q-21 21 -47.5 31.5t-50.5 10.5q-51 0 -81 -27.5t-37 -79.5h157v-82h-158q5 -55 36.5 -82.5t82.5 -27.5 q26 0 51.5 11.5t48.5 31.5z"/>
<glyph glyph-name="afii10102" horiz-adv-x="463" unicode="ѕ" d="M433 151q0 -37 -16 -66t-43.5 -49.5t-64 -31t-78.5 -10.5q-55 0 -109.5 15t-105.5 60l61 81q35 -32 74.5 -45.5t84.5 -13.5q36 0 61 15t25 42q0 26 -21 38.5t-67 17.5q-33 4 -66.5 10t-60.5 21t-44 41t-17 69q0 38 15 67t40 48.5t58.5 29.5t71.5 10q57 0 103 -12.5 t87 -43.5l-54 -86q-35 23 -69.5 33t-64.5 10q-40 0 -60 -15.5t-20 -37.5q0 -25 28 -36t90 -18q30 -3 59.5 -11.5t52 -24.5t36.5 -42t14 -65z"/>
<glyph glyph-name="afii10103" horiz-adv-x="247" unicode="і" d="M67 0v495h113v-495h-113zM67 592v104h113v-104h-113z"/>
<glyph glyph-name="afii10104" horiz-adv-x="235" unicode="ї" d="M60 0v495h115v-495h-115zM-47 583v109h119v-109h-119zM153 583v109h118v-109h-118z"/>
<glyph glyph-name="afii10105" horiz-adv-x="265" unicode="ј" d="M190 -59q0 -64 -36.5 -103t-109.5 -39h-52v100h28q32 0 44 16.5t12 42.5v538h114v-555zM76 592v104h114v-104h-114z"/>
<glyph glyph-name="afii10106" horiz-adv-x="757" unicode="љ" d="M626 162q0 22 -16 42t-57 20h-112v-123h112q37 0 55 17t18 44zM330 397h-107v-126q0 -68 -10 -119t-32 -85.5t-58 -53.5t-87 -23l-20 85q31 9 51 21.5t32 34t16.5 55.5t4.5 85v224h322v-172h119q48 0 82 -13.5t55.5 -35t31.5 -49.5t10 -58q0 -35 -11 -65t-33.5 -53 t-56 -36t-79.5 -13h-230v397z"/>
<glyph glyph-name="afii10107" horiz-adv-x="754" unicode="њ" d="M620 159q0 22 -15.5 40.5t-56.5 18.5l-113 1v-120h113q37 0 54.5 16.5t17.5 43.5zM734 164q0 -34 -11 -64t-33.5 -52t-56 -35t-79.5 -13h-231v218h-158v-218h-113v495h113v-178h158v178h113v-177h119q48 0 82 -13t55.5 -34.5t31.5 -49t10 -57.5z"/>
<glyph glyph-name="afii10108" horiz-adv-x="551" unicode="ћ" d="M381 0v284q0 48 -21.5 73.5t-67.5 25.5q-42 0 -69.5 -28t-27.5 -76v-279h-113v561h-68v80h68v85h113v-85h199v-80h-199v-124l3 -1q23 25 59.5 39.5t73.5 14.5q35 0 65 -11t51.5 -33t34 -55t12.5 -76v-315h-113z"/>
<glyph glyph-name="afii10109" horiz-adv-x="506" unicode="ќ" d="M54 0v494h113v-201h64q13 0 26 2t25.5 9.5t23 22t17.5 38.5l40 130h112l-45 -144q-11 -36 -29 -60.5t-46 -32.5q35 -8 52 -34.5t28 -63.5l49 -160h-116l-36 127q-16 48 -39.5 62t-54.5 14h-71v-203h-113zM187 569l79 190l107 -34l-118 -181z"/>
<glyph glyph-name="afii10110" horiz-adv-x="470" unicode="ў" d="M240 564q-42 0 -70 15t-45.5 37t-25.5 47.5t-9 46.5h87q0 -10 4.5 -21.5t12.5 -21.5t19.5 -16.5t26.5 -6.5q16 0 28 6.5t20 16.5t12 21.5t4 21.5h86q-2 -21 -10 -46.5t-25 -47.5t-45 -37t-70 -15zM252 -100q-21 -57 -60 -78.5t-84 -21.5h-42v95h31q22 0 37 15.5t23 36.5 l25 78l-182 470h122l64 -182l49 -156h4l49 154l63 184h119z"/>
<glyph glyph-name="afii10193" horiz-adv-x="526" unicode="џ" d="M470 495v-495h-153v-149h-108v149h-153v495h109v-393h197v393h108z"/>
<glyph glyph-name="afii10050" horiz-adv-x="545" unicode="Ґ" d="M194 586v-586h-121v696h362v122h104v-232h-345z"/>
<glyph glyph-name="afii10098" horiz-adv-x="438" unicode="ґ" d="M436 398h-268v-398h-112v495h284v103h96v-200z"/>
<glyph glyph-name="schwacyrillic" horiz-adv-x="507" unicode="ә" d="M252 96q38 0 64 27t31 76h-190q4 -51 30 -77t65 -26zM350 280v7q0 48 -27.5 79.5t-78.5 31.5q-21 0 -52.5 -10.5t-59.5 -35.5l-70 78q42 39 90.5 55t95.5 16q39 0 78.5 -11t70.5 -39.5t50.5 -77t19.5 -124.5q0 -72 -19.5 -121t-50.5 -78.5t-69.5 -42.5t-77.5 -13 q-50 0 -89.5 17t-67 47.5t-42 74t-14.5 97.5v50h313z"/>
<glyph glyph-name="endash" horiz-adv-x="513" unicode="–" d="M20 224v101h473v-101h-473z"/>
<glyph glyph-name="emdash" horiz-adv-x="1025" unicode="—" d="M20 224v101h985v-101h-985z"/>
<glyph glyph-name="quoteleft" horiz-adv-x="252" unicode="‘" d="M193 731l-35 -132h32v-138h-136v133l77 137h62z"/>
<glyph glyph-name="quotesinglbase" horiz-adv-x="276" unicode="‚" d="M68 -132l35 132h-32v139h132v-134l-77 -137h-58z"/>
<glyph glyph-name="quotedblleft" horiz-adv-x="375" unicode="“" d="M343 731l-35 -132h32v-138h-136v133l77 137h62zM168 731l-35 -132h32v-138h-136v133l77 137h62z"/>
<glyph glyph-name="quotedblright" horiz-adv-x="375" unicode="”" d="M34 461l35 131h-32v139h136v-134l-77 -136h-62zM209 461l35 131h-32v139h136v-134l-77 -136h-62z"/>
<glyph glyph-name="dagger" horiz-adv-x="488" unicode="†" d="M300 373v-550h-111v550h-168v92h168v231h111v-231h167v-92h-167z"/>
<glyph glyph-name="daggerdbl" horiz-adv-x="488" unicode="‡" d="M189 373h-168v92h168v231h111v-231h167v-92h-167v-166h167v-92h-167v-292h-111v292h-168v92h168v166z"/>
<glyph glyph-name="ellipsis" horiz-adv-x="919" unicode="…" d="M693 0v138h136v-138h-136zM392 0v138h136v-138h-136zM84 0v138h136v-138h-136z"/>
<glyph glyph-name="perthousand" horiz-adv-x="1119" unicode="‰" d="M1002 293q0 24 -14.5 37t-37.5 13t-37 -13t-14 -37v-169q0 -25 14 -37.5t37 -12.5t37.5 12.5t14.5 37.5v169zM1090 121q0 -30 -11.5 -53t-31 -38.5t-45 -24t-52.5 -8.5t-52 8.5t-44.5 24t-31 38.5t-11.5 53v174q0 30 11.5 53t31 39t44.5 24.5t52 8.5t52.5 -8.5t45 -24.5 t31 -39t11.5 -53v-174zM227 -17h-89l425 730h90zM221 572q0 24 -14.5 37t-37.5 13t-37 -13t-14 -37v-169q0 -25 14 -37.5t37 -12.5t37.5 12.5t14.5 37.5v169zM309 400q0 -30 -11.5 -53t-31 -38.5t-45 -24t-52.5 -8.5t-52 8.5t-44.5 24t-31 38.5t-11.5 53v174q0 30 11.5 53 t31 39t44.5 24.5t52 8.5t52.5 -8.5t45 -24.5t31 -39t11.5 -53v-174zM672 293q0 24 -14.5 37t-37.5 13t-37 -13t-14 -37v-169q0 -25 14 -37.5t37 -12.5t37.5 12.5t14.5 37.5v169zM760 121q0 -30 -11.5 -53t-31 -38.5t-45 -24t-52.5 -8.5t-52 8.5t-44.5 24t-31 38.5t-11.5 53 v174q0 30 11.5 53t31 39t44.5 24.5t52 8.5t52.5 -8.5t45 -24.5t31 -39t11.5 -53v-174z"/>
<glyph glyph-name="guilsinglleft" horiz-adv-x="352" unicode="‹" d="M183 28l-137 200l137 200h109l-133 -200l133 -200h-109z"/>
<glyph glyph-name="guilsinglright" horiz-adv-x="352" unicode="›" d="M46 28l133 200l-133 200h109l136 -200l-136 -200h-109z"/>
<glyph glyph-name="Euro" d="M174 365v-40h189v-70h-188q1 -30 8.5 -57.5t22 -47.5t36.5 -32t52 -12q41 0 69 22t47 64l109 -42q-32 -72 -86.5 -114t-139.5 -42q-102 0 -164 58.5t-71 167.5q-1 9 -1.5 17.5t-0.5 17.5h-41v70h41v40h-41v70h41q0 9 0.5 17.5t1.5 16.5q4 50 23 92t49.5 72.5t71.5 47.5 t91 17q81 0 137.5 -40t83.5 -112l-109 -44q-15 38 -44.5 60t-66.5 22q-32 0 -54 -12.5t-35.5 -33.5t-20.5 -48t-9 -55h188v-70h-189z" unicode="€"/>
<glyph glyph-name="trademark" horiz-adv-x="856" unicode="™" d="M245 619v-336h-84v336h-124v77h332v-77h-124zM717 283v230l-80 -173h-62l-79 176v-233h-79v413h73l118 -259l113 259h73v-413h-77z"/>
<glyph glyph-name="arrowleft" horiz-adv-x="835" unicode="←" d="M774 362v-81l-555 1l133 -131l-58 -58l-228 229l228 230l58 -58l-133 -132h555z"/>
<glyph glyph-name="arrowup" horiz-adv-x="501" unicode="↑" d="M294 1h-81v544l-130 -130l-58 58l229 228l230 -228l-58 -58l-132 130v-544z"/>
<glyph glyph-name="arrowright" horiz-adv-x="835" unicode="→" d="M622 362l-133 132l58 58l228 -230l-228 -229l-58 58l133 131l-555 -1v81h555z"/>
<glyph glyph-name="arrowdown" horiz-adv-x="501" unicode="↓" d="M294 154l132 133l58 -58l-230 -228l-229 228l58 58l131 -133l-1 547h81v-547z"/>
<glyph glyph-name="carriagereturn" horiz-adv-x="847" unicode="↵" d="M715 692h81v-410h-564l133 -132l-58 -56l-227 228l227 229l58 -57l-133 -132h483v330z"/>
<glyph glyph-name="partialdiff" horiz-adv-x="530" unicode="∂" d="M248 -10q-46 0 -85.5 15t-69 44.5t-46 72.5t-16.5 100q0 53 16.5 96t45.5 73t67.5 46t83.5 16q33 0 66 -10.5t68 -33.5q-3 46 -16.5 86.5t-36 70.5t-53.5 47t-70 17q-14 0 -34 -1.5t-48 -9.5l-1 90q48 12 91 12q78 0 132.5 -30.5t89 -81.5t50 -118t15.5 -140 q0 -90 -19 -157.5t-52 -112.5t-78.5 -68t-99.5 -23zM251 85q33 0 57 19.5t39.5 50.5t23.5 69t10 75q-36 36 -70.5 50t-60.5 14q-24 0 -43.5 -12.5t-33 -32t-21 -44.5t-7.5 -50q0 -37 8.5 -63t23.5 -43t34 -25t40 -8z"/>
<glyph glyph-name="gradient" horiz-adv-x="630" unicode="∇" d="M460 591h-294l101 -301q11 -35 22 -71t22 -71h5l54 173zM625 696l-262 -696h-99l-262 696h623z"/>
<glyph glyph-name="product" horiz-adv-x="655" unicode="∏" d="M462 -80v668h-268v-668h-121v776h509v-776h-120z"/>
<glyph glyph-name="summation" horiz-adv-x="527" unicode="∑" d="M31 -79v109l161 279l-161 283v104h453v-108h-309l160 -278l-160 -278h322v-111h-466z"/>
<glyph glyph-name="minus" d="M500 341v-90h-477v90h477z" unicode="−"/>
<glyph glyph-name="radical" horiz-adv-x="588" unicode="√" d="M364 -79h-92l-152 394l-67 -20l-30 78l166 53l121 -321l156 689h108z"/>
<glyph glyph-name="infinity" horiz-adv-x="745" unicode="∞" d="M542 350q-32 0 -59 -21t-53 -53q26 -31 52 -54.5t58 -23.5q29 0 51 23t22 54q0 32 -21.5 53.5t-49.5 21.5zM209 350q-14 0 -27.5 -6t-24 -16t-16.5 -23.5t-6 -28.5q0 -33 21.5 -55.5t50.5 -22.5q33 0 61.5 22.5t48.5 53.5q-9 13 -21 27t-25.5 24.5t-29.5 17.5t-32 7z M209 437q25 0 49 -8.5t45.5 -22.5t39.5 -31.5t32 -34.5q34 43 73.5 70t97.5 27q34 0 63 -12t50.5 -33.5t33.5 -51.5t12 -65q0 -33 -13 -62.5t-35.5 -52t-53 -35.5t-65.5 -13q-25 0 -48 8.5t-43.5 22t-38.5 31t-34 35.5q-17 -20 -35 -37.5t-38.5 -30.5t-45 -21t-53.5 -8 q-33 0 -62 12t-50.5 33.5t-34 51.5t-12.5 66q0 33 13 62t35.5 51.5t53 35.5t64.5 13z"/>
<glyph glyph-name="logicaland" d="M221 530h87l202 -530h-117l-128 349l-133 -349h-117z" unicode="∧"/>
<glyph glyph-name="logicalor" d="M15 530h117l133 -350l128 350h117l-202 -530h-87z" unicode="∨"/>
<glyph glyph-name="intersection" d="M496 0h-108v310q0 24 -8.5 46.5t-25 40t-40.5 28t-55 10.5q-62 0 -94.5 -36t-32.5 -89v-310h-104v316q0 42 15.5 80.5t45 68t72.5 47t98 17.5t99 -16t74.5 -44.5t47 -67.5t16.5 -85v-316z" unicode="∩"/>
<glyph glyph-name="union" d="M496 213q0 -46 -16.5 -85.5t-47 -68t-74.5 -44.5t-99 -16t-98 17.5t-72.5 47.5t-45 68.5t-15.5 80.5v316h104v-311q0 -52 32.5 -88t94.5 -36q31 0 55 10.5t40.5 28t25 39.5t8.5 46v311h108v-316z" unicode="∪"/>
<glyph glyph-name="approxequal" d="M492 231q-29 -54 -62 -80t-77 -26q-22 0 -44.5 9t-45 20.5t-44 20.5t-39.5 9q-24 0 -41.5 -12.5t-40.5 -41.5q-17 11 -33 21.5t-33 21.5q29 53 63.5 79t80.5 26q23 0 46 -9.5t44.5 -20.5t41.5 -20.5t38 -9.5q23 0 40.5 15t38.5 43zM492 413q-29 -55 -62 -81t-77 -26 q-22 0 -44.5 9t-45 20.5t-44 20.5t-39.5 9q-24 0 -41.5 -12t-40.5 -41q-17 11 -33 21.5t-33 21.5q29 53 63.5 79t80.5 26q23 0 46 -9.5t44.5 -21t41.5 -20.5t38 -9q23 0 40.5 15t38.5 43z" unicode="≈"/>
<glyph glyph-name="notequal" d="M45 57l61 89h-83v90h145l83 121h-228v89h290l70 102h88l-70 -102h100v-89h-162l-83 -121h245v-90h-307l-62 -91z" unicode="≠"/>
<glyph glyph-name="lessequal" d="M25 1v90h476v-90h-476zM501 138l-477 163v80q120 42 238.5 85t238.5 85v-100l-330 -110l330 -102v-101z" unicode="≤"/>
<glyph glyph-name="greaterequal" d="M24 0v90h477v-90h-477zM25 238q83 26 165 51t165 51l-330 110v100q120 -42 238 -85t238 -85v-80l-476 -163v101z" unicode="≥"/>
<glyph glyph-name="lozenge" horiz-adv-x="530" unicode="◊" d="M258 539q-10 -20 -24.5 -49.5t-30 -61t-30 -61t-24.5 -49.5q10 -19 25 -49t31 -61.5t31 -61.5t24 -49q10 20 24.5 49.5t30 60.5t29.5 60.5t24 49.5zM296 -19h-75l-174 336q9 18 23 45t30 58.5t34 65t34 65t30 58.5t23 45h76l172 -337z"/>
</font>
</defs>
</svg>
